<svg width="14" height="16" viewBox="0 0 14 16" fill="none" xmlns="http://www.w3.org/2000/svg">
<path d="M6.99753 4.36364C7.80115 4.36364 8.45208 3.71274 8.45208 2.90908C8.45208 2.63635 8.37572 2.37818 8.24481 2.16L6.99753 0L5.75024 2.16C5.61933 2.37818 5.54297 2.63635 5.54297 2.90908C5.54297 3.71274 6.1939 4.36364 6.99753 4.36364Z" fill="#838383"/>
<path d="M11.3622 6.54547H7.72585V5.09091H6.27129V6.54547H2.63494C1.4313 6.54547 0.453125 7.52364 0.453125 8.72729V9.84728C0.453125 10.6327 1.09311 11.2727 1.87857 11.2727C2.26039 11.2727 2.61674 11.1236 2.88585 10.8545L4.44221 9.30179L5.99495 10.8509C6.53314 11.3891 7.47132 11.3891 8.00948 10.8509L9.56584 9.30179L11.1186 10.8509C11.3877 11.12 11.744 11.2691 12.1259 11.2691C12.9113 11.2691 13.5513 10.6291 13.5513 9.84363V8.72729C13.544 7.52364 12.5659 6.54547 11.3622 6.54547Z" fill="#838383"/>
<path d="M10.3404 11.6255L9.55861 10.8436L8.77315 11.6255C7.82406 12.5745 6.16588 12.5745 5.21679 11.6255L4.43495 10.8436L3.64949 11.6255C3.1804 12.1018 2.55132 12.3636 1.87857 12.3636C1.35128 12.3636 0.860375 12.1963 0.453125 11.9163V15.2727C0.453125 15.6727 0.780398 16 1.18039 16H12.8167C13.2167 16 13.544 15.6727 13.544 15.2727V11.9164C13.1367 12.1964 12.6495 12.3637 12.1186 12.3637C11.4458 12.3637 10.8168 12.1018 10.3404 11.6255Z" fill="#838383"/>
</svg>
