<svg width="16" height="18" viewBox="0 0 16 18" fill="none" xmlns="http://www.w3.org/2000/svg">
<path d="M2.16017 4.01716L2.15653 2.38799C2.15583 1.93684 2.33394 1.50379 2.65186 1.18367C2.96977 0.863559 3.40158 0.682466 3.85273 0.68005L4.61939 0.678346C5.06439 0.677774 5.49191 0.851507 5.81037 1.16232C6.12882 1.47314 6.31288 1.89632 6.32312 2.3412L12.1231 2.32828C12.5678 2.3287 12.9948 2.50276 13.313 2.81337C13.6312 3.12398 13.8156 3.54658 13.8268 3.99113C12.8008 3.9934 3.1869 4.01488 2.16017 4.01716ZM15.9755 6.77913L14.6421 15.875C14.5802 16.2775 14.3766 16.6448 14.068 16.9106C13.7594 17.1764 13.3661 17.3233 12.9588 17.325L3.07548 17.35C2.66942 17.3486 2.27709 17.2029 1.96868 16.9387C1.66026 16.6746 1.4559 16.3093 1.39214 15.9083L0.0171444 6.81247C-0.138997 5.51576 0.931686 4.71045 2.16298 4.85L12.9953 4.82913V4.82631L13.8287 4.82445V4.82497H14.2755C14.5205 4.82662 14.7623 4.88039 14.9849 4.98269C15.2075 5.085 15.4058 5.2335 15.5666 5.41833C15.7274 5.60317 15.847 5.8201 15.9175 6.05472C15.988 6.28934 16.0078 6.53628 15.9755 6.77913ZM4.25464 10.1791C4.34565 10.775 4.65082 11.3172 5.11298 11.7041L7.99631 14.5416L10.8671 11.6833C11.1297 11.4639 11.3441 11.1926 11.4968 10.8865C11.6496 10.5803 11.7373 10.2458 11.7546 9.90413C11.7582 8.07591 9.38873 7.03644 8.00048 8.22913C6.49993 6.97359 4.04894 8.21633 4.25464 10.1791Z" fill="url(#paint0_linear_935_381)"/>
<defs>
<linearGradient id="paint0_linear_935_381" x1="-1.14707" y1="-5.42466" x2="17.7478" y2="-4.664" gradientUnits="userSpaceOnUse">
<stop stop-color="#A8F5FF"/>
<stop offset="0.169834" stop-color="#FF4E72"/>
<stop offset="0.790438" stop-color="#DA0530"/>
<stop offset="0.98" stop-color="#E9A2C2"/>
</linearGradient>
</defs>
</svg>
