<svg width="343" height="28" viewBox="0 0 343 28" fill="none" xmlns="http://www.w3.org/2000/svg">
<path fill-rule="evenodd" clip-rule="evenodd" d="M10.7455 1.91394C10.0459 5.22402 8.06558 8.24045 4.98727 10.1671C3.4549 11.1262 1.80182 11.7212 0.12439 11.9786L0.000518799 15.9093C3.30835 16.6326 6.33759 18.6383 8.28552 21.7434C9.25583 23.2901 9.86154 24.9552 10.1293 26.6412L14.0612 26.7419C14.7617 23.4339 16.7416 20.4197 19.8183 18.494C21.1427 17.6651 22.5574 17.1081 24 16.806V17L343 17V13L24.8018 13L24.8097 12.751C21.5009 12.0282 18.4705 10.0222 16.5221 6.9163C15.551 5.36837 14.9451 3.70183 14.6776 2.0144L10.7455 1.91394ZM7.10941 13.5578C9.40604 12.1203 11.2364 10.2186 12.5562 8.05014C12.7364 8.38473 12.9288 8.71553 13.1336 9.04198C14.5837 11.3535 16.4968 13.2001 18.6749 14.535C18.3447 14.7124 18.0182 14.9018 17.6961 15.1034C15.4004 16.5403 13.5706 18.4411 12.2509 20.6085C12.0708 20.2743 11.8785 19.9438 11.674 19.6177C10.2239 17.3063 8.31097 15.4597 6.13303 14.1249C6.46243 13.9479 6.78809 13.7589 7.10941 13.5578Z" fill="url(#paint0_linear_937_335)"/>
<defs>
<linearGradient id="paint0_linear_937_335" x1="367.65" y1="-7.17486" x2="63.824" y2="169.021" gradientUnits="userSpaceOnUse">
<stop stop-color="#A8F5FF"/>
<stop offset="0.169834" stop-color="#FF4E72"/>
<stop offset="0.790438" stop-color="#DA0530"/>
<stop offset="0.98" stop-color="#E9A2C2"/>
</linearGradient>
</defs>
</svg>
