<svg width="845" height="29" viewBox="0 0 845 29" fill="none" xmlns="http://www.w3.org/2000/svg">
<path fill-rule="evenodd" clip-rule="evenodd" d="M10.7455 2.41395C10.0459 5.72404 8.06561 8.74047 4.98724 10.6671C3.4549 11.6262 1.80182 12.2212 0.12439 12.4786L0.000549316 16.4093C3.30835 17.1326 6.33759 19.1383 8.28552 22.2434C9.2558 23.7901 9.86157 25.4552 10.1293 27.1412L14.0612 27.2419C14.7618 23.9339 16.7416 20.9197 19.8183 18.994C21.1428 18.1651 22.5574 17.6081 24 17.306V17.3279L845 17.3279V13.3279L24.8073 13.3278L24.8098 13.251C21.5009 12.5282 18.4705 10.5222 16.522 7.41631C15.551 5.86839 14.9451 4.20185 14.6776 2.51442L10.7455 2.41395ZM7.10944 14.0578C9.40607 12.6204 11.2364 10.7186 12.5562 8.55016C12.7364 8.88475 12.9288 9.21555 13.1336 9.54199C14.5837 11.8535 16.4968 13.7002 18.6749 15.035C18.3447 15.2124 18.0182 15.4018 17.6961 15.6034C15.4004 17.0403 13.5706 18.9411 12.2509 21.1086C12.0708 20.7743 11.8785 20.4438 11.674 20.1177C10.2239 17.8063 8.31097 15.9597 6.13306 14.6249C6.46246 14.4479 6.78809 14.2589 7.10944 14.0578Z" fill="url(#paint0_linear_916_451)"/>
<defs>
<linearGradient id="paint0_linear_916_451" x1="905.726" y1="-6.67486" x2="576.827" y2="463.215" gradientUnits="userSpaceOnUse">
<stop stop-color="#A8F5FF"/>
<stop offset="0.169834" stop-color="#FF4E72"/>
<stop offset="0.790438" stop-color="#DA0530"/>
<stop offset="0.98" stop-color="#E9A2C2"/>
</linearGradient>
</defs>
</svg>
