<svg width="81" height="80" viewBox="0 0 81 80" fill="none" xmlns="http://www.w3.org/2000/svg">
<path d="M60.2988 60.2986C57.249 64.3332 52.078 66.2326 46.1018 65.9652C40.1283 65.6979 33.4035 63.2622 27.3632 58.6961C21.3228 54.13 17.1454 48.3244 15.2591 42.6502C13.3719 36.9735 13.7891 31.4805 16.8389 27.446C19.8887 23.4114 25.0597 21.512 31.0359 21.7794C37.0095 22.0468 43.7342 24.4825 49.7746 29.0486C55.815 33.6147 59.9923 39.4202 61.8787 45.0944C63.7658 50.7711 63.3487 56.2641 60.2988 60.2986Z" stroke="url(#paint0_linear_918_1107)"/>
<path d="M38.5649 5L40.5617 38.2342L73.7959 40.231L40.5617 42.2277L38.5649 75.4619L36.5682 42.2277L3.33398 40.231L36.5682 38.2342L38.5649 5Z" fill="url(#paint1_linear_918_1107)"/>
<path d="M24.8596 26.5251L38.565 38.677L52.2703 26.5251L40.1185 40.2305L52.2703 53.9358L38.565 41.784L24.8596 53.9358L37.0115 40.2305L24.8596 26.5251Z" fill="url(#paint2_linear_918_1107)"/>
<mask id="path-4-inside-1_918_1107" fill="white">
<path d="M11.0571 51.6787L11.4745 58.6269L18.4227 59.0444L11.4745 59.4618L11.0571 66.41L10.6396 59.4618L3.69141 59.0444L10.6396 58.6269L11.0571 51.6787Z"/>
</mask>
<path d="M11.0571 51.6787L11.4745 58.6269L18.4227 59.0444L11.4745 59.4618L11.0571 66.41L10.6396 59.4618L3.69141 59.0444L10.6396 58.6269L11.0571 51.6787Z" fill="url(#paint3_linear_918_1107)"/>
<path d="M11.0571 51.6787L12.0553 51.6187H10.0589L11.0571 51.6787ZM18.4227 59.0444L18.4827 60.0426V58.0462L18.4227 59.0444ZM11.0571 66.41L10.0589 66.47H12.0553L11.0571 66.41ZM3.69141 59.0444L3.63143 58.0462V60.0426L3.69141 59.0444ZM10.6396 58.6269L10.6996 59.6251L11.5846 59.572L11.6378 58.6869L10.6396 58.6269ZM10.6396 59.4618L11.6378 59.4019L11.5846 58.5168L10.6996 58.4636L10.6396 59.4618ZM11.4745 59.4618L11.4146 58.4636L10.5295 58.5168L10.4763 59.4019L11.4745 59.4618ZM11.4745 58.6269L10.4763 58.6869L10.5295 59.572L11.4146 59.6251L11.4745 58.6269ZM3.75138 60.0426L10.6996 59.6251L10.5797 57.6287L3.63143 58.0462L3.75138 60.0426ZM11.6378 58.6869L12.0553 51.7387L10.0589 51.6187L9.64142 58.567L11.6378 58.6869ZM12.0553 66.3501L11.6378 59.4019L9.64142 59.5218L10.0589 66.47L12.0553 66.3501ZM10.6996 58.4636L3.75138 58.0462L3.63143 60.0426L10.5797 60.46L10.6996 58.4636ZM18.3628 58.0462L11.4146 58.4636L11.5345 60.46L18.4827 60.0426L18.3628 58.0462ZM10.4763 59.4019L10.0589 66.3501L12.0553 66.47L12.4727 59.5218L10.4763 59.4019ZM10.0589 51.7387L10.4763 58.6869L12.4727 58.567L12.0553 51.6187L10.0589 51.7387ZM11.4146 59.6251L18.3628 60.0426L18.4827 58.0462L11.5345 57.6287L11.4146 59.6251Z" fill="#DA0530" mask="url(#path-4-inside-1_918_1107)"/>
<mask id="path-6-inside-2_918_1107" fill="white">
<path d="M8.19152 56.1786L11.0569 58.7192L13.9222 56.1786L11.3817 59.0439L13.9222 61.9093L11.0569 59.3687L8.19152 61.9093L10.7321 59.0439L8.19152 56.1786Z"/>
</mask>
<path d="M8.19152 56.1786L11.0569 58.7192L13.9222 56.1786L11.3817 59.0439L13.9222 61.9093L11.0569 59.3687L8.19152 61.9093L10.7321 59.0439L8.19152 56.1786Z" fill="url(#paint4_linear_918_1107)"/>
<path d="M8.19152 56.1786L8.85495 55.4304L7.44328 56.842L8.19152 56.1786ZM13.9222 56.1786L14.6705 56.842L13.2588 55.4304L13.9222 56.1786ZM13.9222 61.9093L13.2588 62.6575L14.6705 61.2459L13.9222 61.9093ZM8.19152 61.9093L7.44328 61.2459L8.85495 62.6575L8.19152 61.9093ZM10.7321 59.0439L11.4803 59.7074L12.0685 59.0439L11.4803 58.3805L10.7321 59.0439ZM11.0569 59.3687L11.7203 58.6205L11.0569 58.0323L10.3934 58.6205L11.0569 59.3687ZM11.3817 59.0439L10.6334 58.3805L10.0452 59.0439L10.6334 59.7074L11.3817 59.0439ZM11.0569 58.7192L10.3934 59.4674L11.0569 60.0556L11.7203 59.4674L11.0569 58.7192ZM8.93976 62.5727L11.4803 59.7074L9.98384 58.3805L7.44328 61.2459L8.93976 62.5727ZM11.4803 58.3805L8.93976 55.5152L7.44328 56.842L9.98384 59.7074L11.4803 58.3805ZM14.5856 61.1611L11.7203 58.6205L10.3934 60.117L13.2588 62.6575L14.5856 61.1611ZM10.3934 58.6205L7.52809 61.1611L8.85495 62.6575L11.7203 60.117L10.3934 58.6205ZM13.174 55.5152L10.6334 58.3805L12.1299 59.7074L14.6705 56.842L13.174 55.5152ZM10.6334 59.7074L13.174 62.5727L14.6705 61.2459L12.1299 58.3805L10.6334 59.7074ZM7.52809 56.9268L10.3934 59.4674L11.7203 57.9709L8.85495 55.4304L7.52809 56.9268ZM11.7203 59.4674L14.5856 56.9268L13.2588 55.4304L10.3934 57.9709L11.7203 59.4674Z" fill="#DA0530" mask="url(#path-6-inside-2_918_1107)"/>
<mask id="path-8-inside-3_918_1107" fill="white">
<path d="M58.6196 12.8096L59.037 19.7578L65.9852 20.1752L59.037 20.5927L58.6196 27.5409L58.2021 20.5927L51.2539 20.1752L58.2021 19.7578L58.6196 12.8096Z"/>
</mask>
<path d="M58.6196 12.8096L59.037 19.7578L65.9852 20.1752L59.037 20.5927L58.6196 27.5409L58.2021 20.5927L51.2539 20.1752L58.2021 19.7578L58.6196 12.8096Z" fill="url(#paint5_linear_918_1107)"/>
<path d="M58.6196 12.8096L59.6178 12.7496H57.6214L58.6196 12.8096ZM65.9852 20.1752L66.0452 21.1734V19.177L65.9852 20.1752ZM58.6196 27.5409L57.6214 27.6009H59.6178L58.6196 27.5409ZM51.2539 20.1752L51.1939 19.177V21.1734L51.2539 20.1752ZM58.2021 19.7578L58.2621 20.756L59.1471 20.7028L59.2003 19.8178L58.2021 19.7578ZM58.2021 20.5927L59.2003 20.5327L59.1471 19.6477L58.2621 19.5945L58.2021 20.5927ZM59.037 20.5927L58.9771 19.5945L58.092 19.6477L58.0388 20.5327L59.037 20.5927ZM59.037 19.7578L58.0388 19.8178L58.092 20.7028L58.9771 20.756L59.037 19.7578ZM51.3139 21.1734L58.2621 20.756L58.1422 18.7596L51.1939 19.177L51.3139 21.1734ZM59.2003 19.8178L59.6178 12.8695L57.6214 12.7496L57.2039 19.6978L59.2003 19.8178ZM59.6178 27.4809L59.2003 20.5327L57.2039 20.6527L57.6214 27.6009L59.6178 27.4809ZM58.2621 19.5945L51.3139 19.177L51.1939 21.1734L58.1422 21.5909L58.2621 19.5945ZM65.9253 19.177L58.9771 19.5945L59.097 21.5909L66.0452 21.1734L65.9253 19.177ZM58.0388 20.5327L57.6214 27.4809L59.6178 27.6009L60.0352 20.6527L58.0388 20.5327ZM57.6214 12.8695L58.0388 19.8178L60.0352 19.6978L59.6178 12.7496L57.6214 12.8695ZM58.9771 20.756L65.9253 21.1734L66.0452 19.177L59.097 18.7596L58.9771 20.756Z" fill="#DA0530" mask="url(#path-8-inside-3_918_1107)"/>
<mask id="path-10-inside-4_918_1107" fill="white">
<path d="M55.754 17.3095L58.6194 19.85L61.4847 17.3095L58.9442 20.1748L61.4847 23.0402L58.6194 20.4996L55.754 23.0402L58.2946 20.1748L55.754 17.3095Z"/>
</mask>
<path d="M55.754 17.3095L58.6194 19.85L61.4847 17.3095L58.9442 20.1748L61.4847 23.0402L58.6194 20.4996L55.754 23.0402L58.2946 20.1748L55.754 17.3095Z" fill="url(#paint6_linear_918_1107)"/>
<path d="M55.754 17.3095L56.4174 16.5612L55.0058 17.9729L55.754 17.3095ZM61.4847 17.3095L62.233 17.9729L60.8213 16.5612L61.4847 17.3095ZM61.4847 23.0402L60.8213 23.7884L62.233 22.3767L61.4847 23.0402ZM55.754 23.0402L55.0058 22.3767L56.4174 23.7884L55.754 23.0402ZM58.2946 20.1748L59.0428 20.8382L59.631 20.1748L59.0428 19.5114L58.2946 20.1748ZM58.6194 20.4996L59.2828 19.7514L58.6194 19.1631L57.9559 19.7514L58.6194 20.4996ZM58.9442 20.1748L58.1959 19.5114L57.6077 20.1748L58.1959 20.8382L58.9442 20.1748ZM58.6194 19.85L57.9559 20.5983L58.6194 21.1865L59.2828 20.5983L58.6194 19.85ZM56.5023 23.7036L59.0428 20.8382L57.5463 19.5114L55.0058 22.3767L56.5023 23.7036ZM59.0428 19.5114L56.5023 16.646L55.0058 17.9729L57.5463 20.8382L59.0428 19.5114ZM62.1481 22.2919L59.2828 19.7514L57.9559 21.2478L60.8213 23.7884L62.1481 22.2919ZM57.9559 19.7514L55.0906 22.2919L56.4174 23.7884L59.2828 21.2478L57.9559 19.7514ZM60.7365 16.646L58.1959 19.5114L59.6924 20.8382L62.233 17.9729L60.7365 16.646ZM58.1959 20.8382L60.7365 23.7036L62.233 22.3767L59.6924 19.5114L58.1959 20.8382ZM55.0906 18.0577L57.9559 20.5983L59.2828 19.1018L56.4174 16.5612L55.0906 18.0577ZM59.2828 20.5983L62.1481 18.0577L60.8213 16.5612L57.9559 19.1018L59.2828 20.5983Z" fill="#DA0530" mask="url(#path-10-inside-4_918_1107)"/>
<defs>
<linearGradient id="paint0_linear_918_1107" x1="33.1916" y1="-1.62756" x2="82.9771" y2="41.0117" gradientUnits="userSpaceOnUse">
<stop stop-color="#A8F5FF"/>
<stop offset="0.169834" stop-color="#FF4E72"/>
<stop offset="0.790438" stop-color="#DA0530"/>
<stop offset="0.98" stop-color="#E9A2C2"/>
</linearGradient>
<linearGradient id="paint1_linear_918_1107" x1="-1.72979" y1="-20.7941" x2="81.5287" y2="-17.2991" gradientUnits="userSpaceOnUse">
<stop stop-color="#A8F5FF"/>
<stop offset="0.169834" stop-color="#FF4E72"/>
<stop offset="0.790438" stop-color="#DA0530"/>
<stop offset="0.98" stop-color="#E9A2C2"/>
</linearGradient>
<linearGradient id="paint2_linear_918_1107" x1="-0.849851" y1="32.1661" x2="32.8984" y2="1.13698" gradientUnits="userSpaceOnUse">
<stop stop-color="#A8F5FF"/>
<stop offset="0.169834" stop-color="#FF4E72"/>
<stop offset="0.790438" stop-color="#DA0530"/>
<stop offset="0.98" stop-color="#E9A2C2"/>
</linearGradient>
<linearGradient id="paint3_linear_918_1107" x1="2.63273" y1="46.286" x2="20.0394" y2="47.0167" gradientUnits="userSpaceOnUse">
<stop stop-color="#A8F5FF"/>
<stop offset="0.169834" stop-color="#FF4E72"/>
<stop offset="0.790438" stop-color="#DA0530"/>
<stop offset="0.98" stop-color="#E9A2C2"/>
</linearGradient>
<linearGradient id="paint4_linear_918_1107" x1="2.81649" y1="57.3579" x2="9.87218" y2="50.8707" gradientUnits="userSpaceOnUse">
<stop stop-color="#A8F5FF"/>
<stop offset="0.169834" stop-color="#FF4E72"/>
<stop offset="0.790438" stop-color="#DA0530"/>
<stop offset="0.98" stop-color="#E9A2C2"/>
</linearGradient>
<linearGradient id="paint5_linear_918_1107" x1="50.1952" y1="7.41685" x2="67.6019" y2="8.14754" gradientUnits="userSpaceOnUse">
<stop stop-color="#A8F5FF"/>
<stop offset="0.169834" stop-color="#FF4E72"/>
<stop offset="0.790438" stop-color="#DA0530"/>
<stop offset="0.98" stop-color="#E9A2C2"/>
</linearGradient>
<linearGradient id="paint6_linear_918_1107" x1="50.379" y1="18.4888" x2="57.4347" y2="12.0016" gradientUnits="userSpaceOnUse">
<stop stop-color="#A8F5FF"/>
<stop offset="0.169834" stop-color="#FF4E72"/>
<stop offset="0.790438" stop-color="#DA0530"/>
<stop offset="0.98" stop-color="#E9A2C2"/>
</linearGradient>
</defs>
</svg>
