<svg width="20" height="20" viewBox="0 0 20 20" fill="none" xmlns="http://www.w3.org/2000/svg">
<path d="M17.4204 13.7737H2.97507C2.65477 13.7737 2.39453 14.0342 2.39453 14.3545V15.1531C2.39453 15.4734 2.65477 15.734 2.97507 15.734H17.4204C17.7407 15.734 18.001 15.4734 18.001 15.1531V14.3545C18.001 14.0342 17.7407 13.7737 17.4204 13.7737Z" fill="#838383"/>
<path d="M4.9412 11.767L8.54962 10.5931L7.80624 11.926C7.72378 12.0733 7.74559 12.2558 7.86002 12.3801C7.97536 12.5053 8.15672 12.5403 8.3091 12.471L9.78808 11.7969L12.7729 8.5742L16.8717 6.44148C17.6252 6.02049 17.9918 5.21855 17.5604 4.69299C16.9443 4.00549 15.8456 4.33295 15.5848 4.42408C15.0966 4.4202 14.5346 4.39719 14.0984 4.64608L5.96453 8.79291L3.22259 7.40207C2.88377 7.20876 2.54255 7.49798 2.26887 7.67247C1.99369 7.84069 1.9154 8.24046 2.10902 8.49921L4.28925 11.5516C4.43685 11.7598 4.69978 11.8456 4.9412 11.767Z" fill="#838383"/>
</svg>
