<svg width="24" height="24" viewBox="0 0 24 24" fill="none" xmlns="http://www.w3.org/2000/svg">
<path d="M22.1991 17.6334L14.0006 3.39563C13.7957 3.04681 13.5033 2.75758 13.1522 2.55662C12.8011 2.35566 12.4036 2.24994 11.9991 2.24994C11.5945 2.24994 11.197 2.35566 10.8459 2.55662C10.4948 2.75758 10.2024 3.04681 9.99749 3.39563L1.79905 17.6334C1.60193 17.9708 1.49805 18.3546 1.49805 18.7453C1.49805 19.1361 1.60193 19.5198 1.79905 19.8572C2.0013 20.2081 2.29327 20.4989 2.64502 20.6997C2.99676 20.9006 3.3956 21.0042 3.80061 21H20.1975C20.6022 21.0039 21.0006 20.9001 21.352 20.6993C21.7034 20.4985 21.9951 20.2078 22.1972 19.8572C22.3946 19.52 22.4988 19.1363 22.4991 18.7456C22.4995 18.3548 22.3959 17.971 22.1991 17.6334ZM11.2491 9.75C11.2491 9.55109 11.3281 9.36032 11.4687 9.21967C11.6094 9.07902 11.8001 9 11.9991 9C12.198 9 12.3887 9.07902 12.5294 9.21967C12.67 9.36032 12.7491 9.55109 12.7491 9.75V13.5C12.7491 13.6989 12.67 13.8897 12.5294 14.0303C12.3887 14.171 12.198 14.25 11.9991 14.25C11.8001 14.25 11.6094 14.171 11.4687 14.0303C11.3281 13.8897 11.2491 13.6989 11.2491 13.5V9.75ZM11.9991 18C11.7765 18 11.559 17.934 11.374 17.8104C11.189 17.6868 11.0448 17.5111 10.9597 17.3055C10.8745 17.1 10.8523 16.8738 10.8957 16.6555C10.9391 16.4373 11.0462 16.2368 11.2036 16.0795C11.3609 15.9222 11.5613 15.815 11.7796 15.7716C11.9978 15.7282 12.224 15.7505 12.4296 15.8356C12.6351 15.9208 12.8108 16.065 12.9345 16.25C13.0581 16.435 13.1241 16.6525 13.1241 16.875C13.1241 17.1734 13.0055 17.4595 12.7945 17.6705C12.5836 17.8815 12.2974 18 11.9991 18Z" fill="#DA0530"/>
</svg>
