<svg width="24" height="24" viewBox="0 0 24 24" fill="none" xmlns="http://www.w3.org/2000/svg">
<path fill-rule="evenodd" clip-rule="evenodd" d="M20.3453 6.96328C19.9599 6.98729 19.6078 7.07933 17.3606 7.7434C16.4202 8.02131 15.3823 8.32674 15.0542 8.42205C13.3671 8.9123 9.06338 10.174 8.13617 10.4502C7.55377 10.6237 7.03183 10.7588 6.97629 10.7504C6.92075 10.742 6.10357 10.3442 5.16034 9.86647L3.44537 8.99786L2.98219 9.12896C2.55585 9.24957 2.52375 9.26788 2.57846 9.3588C3.41461 10.749 4.95989 12.8614 5.30895 13.0914C5.69126 13.3433 6.84782 13.436 8.27042 13.3287C9.73835 13.2181 10.8306 13.0326 12.0341 12.6894C12.4454 12.5722 12.7933 12.4919 12.8072 12.5109C12.8378 12.5527 12.8218 12.6128 11.5497 17.2467C11.2069 18.4955 10.921 19.5506 10.9145 19.5912C10.908 19.632 10.933 19.6827 10.9701 19.704C11.0799 19.7671 12.8209 19.2557 12.9483 19.1229C13.0087 19.06 14.0079 17.2599 15.1689 15.1226C16.3299 12.9854 17.3004 11.2099 17.3255 11.1772C17.3507 11.1444 18.3339 10.8357 19.5105 10.491C21.8059 9.81868 22.1993 9.67381 22.5857 9.35867C22.8598 9.13498 23.1675 8.73804 23.257 8.49258C23.4008 8.09794 23.1329 7.70164 22.5105 7.38808C22.0814 7.17194 20.8558 6.93145 20.3453 6.96328ZM9.26894 5.63188C9.08684 5.63649 7.57149 6.07687 7.45806 6.15814C7.41653 6.1879 7.42402 6.23481 7.48199 6.30854C7.56107 6.40904 10.0766 8.64109 10.2971 8.80646C10.3863 8.8733 10.5443 8.83945 11.5823 8.53108C12.2333 8.33766 12.9798 8.11878 13.2412 8.04469C13.5027 7.97056 13.7015 7.89148 13.6831 7.86892C13.6646 7.84636 13.4562 7.72722 13.2199 7.60418C12.9836 7.48119 12.0826 7.00372 11.2176 6.54319C9.40954 5.58055 9.50649 5.6259 9.26894 5.63188Z" fill="#838383"/>
</svg>
