<svg width="25" height="24" viewBox="0 0 25 24" fill="none" xmlns="http://www.w3.org/2000/svg">
<path fill-rule="evenodd" clip-rule="evenodd" d="M13.502 4.99951C13.502 4.44723 13.0543 3.99951 12.502 3.99951C11.9497 3.99951 11.502 4.44723 11.502 4.99951V13.0857L8.70906 10.2928C8.31854 9.90229 7.68537 9.90229 7.29485 10.2928C6.90432 10.6833 6.90432 11.3165 7.29485 11.707L11.0878 15.5C11.8688 16.281 13.1352 16.281 13.9162 15.5L17.7072 11.709C18.0977 11.3185 18.0977 10.6853 17.7072 10.2948C17.3167 9.90425 16.6835 9.90425 16.293 10.2948L13.502 13.0858V4.99951Z" fill="#E4E9F2"/>
<path fill-rule="evenodd" clip-rule="evenodd" d="M4.5 14C5.05228 14 5.5 14.4477 5.5 15V17C5.5 17.5523 5.94772 18 6.5 18H18.5C19.0523 18 19.5 17.5523 19.5 17V15C19.5 14.4477 19.9477 14 20.5 14C21.0523 14 21.5 14.4477 21.5 15V17C21.5 18.6569 20.1569 20 18.5 20H6.5C4.84315 20 3.5 18.6569 3.5 17V15C3.5 14.4477 3.94772 14 4.5 14Z" fill="#E4E9F2"/>
</svg>
