<svg width="20" height="20" viewBox="0 0 20 20" fill="none" xmlns="http://www.w3.org/2000/svg">
<path fill-rule="evenodd" clip-rule="evenodd" d="M7.10903 2.4473C8.92975 1.38939 11.1677 1.40788 12.9713 2.49574C14.7572 3.60575 15.8427 5.5868 15.8325 7.71786C15.791 9.83494 14.6271 11.825 13.1722 13.3634C12.3325 14.2553 11.3932 15.044 10.3734 15.7134C10.2684 15.7741 10.1533 15.8147 10.0339 15.8333C9.91901 15.8284 9.80711 15.7945 9.70831 15.7345C8.15137 14.7288 6.78546 13.445 5.67629 11.945C4.74817 10.6928 4.22088 9.18 4.16602 7.61201C4.16481 5.47686 5.28832 3.50521 7.10903 2.4473ZM8.16115 8.49564C8.46742 9.25069 9.19033 9.74319 9.99235 9.7432C10.5178 9.74697 11.0228 9.53651 11.395 9.15872C11.7672 8.78093 11.9756 8.26719 11.9737 7.73197C11.9765 6.91502 11.4956 6.17692 10.7554 5.8623C10.0152 5.54769 9.16189 5.71862 8.59378 6.29528C8.02568 6.87195 7.85488 7.74059 8.16115 8.49564Z" fill="#838383"/>
<ellipse opacity="0.4" cx="9.9987" cy="17.5" rx="4.16667" ry="0.833333" fill="#838383"/>
</svg>
