<svg width="24" height="24" viewBox="0 0 24 24" fill="none" xmlns="http://www.w3.org/2000/svg">
<path fill-rule="evenodd" clip-rule="evenodd" d="M4.36751 18.559C4.00751 18.809 3.64751 18.809 3.28751 18.432C3.04751 18.307 2.92651 18.057 3.04751 17.805C4.60751 12.91 8.57051 9.521 13.3745 8.768V5.002C13.4945 4.626 13.7345 4.5 14.0945 4.5C14.2145 4.5 14.3345 4.626 14.3345 4.626L20.8195 11.529C21.0595 11.78 21.0595 12.157 20.8195 12.408L14.9595 18.647L14.3345 19.312C14.0945 19.562 13.7345 19.562 13.6145 19.312C13.4945 19.186 13.4945 19.186 13.4945 19.061V15.169C12.9944 15.1495 12.4936 15.1588 11.9945 15.197C9.17751 15.41 6.51151 16.531 4.36751 18.559ZM14.9945 16.419V13.724L13.5505 13.671C10.7455 13.566 8.00051 14.248 5.60851 15.721C7.36151 12.751 10.2595 10.774 13.6065 10.25L14.8745 10.05V7.39L19.1745 11.969L14.9945 16.419Z" fill="#2D43CA"/>
</svg>
