<svg width="80" height="80" viewBox="0 0 80 80" fill="none" xmlns="http://www.w3.org/2000/svg">
<path d="M59.9648 60.2986C56.915 64.3332 51.7441 66.2326 45.7678 65.9652C39.7943 65.6979 33.0696 63.2622 27.0292 58.6961C20.9888 54.13 16.8114 48.3244 14.9251 42.6502C13.0379 36.9735 13.4551 31.4805 16.5049 27.446C19.5548 23.4114 24.7257 21.512 30.7019 21.7794C36.6755 22.0468 43.4002 24.4825 49.4406 29.0486C55.481 33.6147 59.6584 39.4202 61.5447 45.0944C63.4319 50.7711 63.0147 56.2641 59.9648 60.2986Z" stroke="url(#paint0_linear_1076_5787)"/>
<path d="M38.231 5L40.2277 38.2342L73.4619 40.231L40.2277 42.2277L38.231 75.4619L36.2342 42.2277L3 40.231L36.2342 38.2342L38.231 5Z" fill="url(#paint1_linear_1076_5787)"/>
<path d="M24.5256 26.5251L38.231 38.677L51.9363 26.5251L39.7845 40.2305L51.9363 53.9358L38.231 41.784L24.5256 53.9358L36.6775 40.2305L24.5256 26.5251Z" fill="url(#paint2_linear_1076_5787)"/>
<mask id="path-4-inside-1_1076_5787" fill="white">
<path d="M10.7211 51.6787L11.1386 58.6269L18.0868 59.0444L11.1386 59.4618L10.7211 66.41L10.3037 59.4618L3.35547 59.0444L10.3037 58.6269L10.7211 51.6787Z"/>
</mask>
<path d="M10.7211 51.6787L11.1386 58.6269L18.0868 59.0444L11.1386 59.4618L10.7211 66.41L10.3037 59.4618L3.35547 59.0444L10.3037 58.6269L10.7211 51.6787Z" fill="url(#paint3_linear_1076_5787)"/>
<path d="M10.7211 51.6787L11.7193 51.6187H9.72294L10.7211 51.6787ZM18.0868 59.0444L18.1468 60.0426V58.0462L18.0868 59.0444ZM10.7211 66.41L9.72294 66.47H11.7193L10.7211 66.41ZM3.35547 59.0444L3.2955 58.0462V60.0426L3.35547 59.0444ZM10.3037 58.6269L10.3637 59.6251L11.2487 59.572L11.3019 58.6869L10.3037 58.6269ZM10.3037 59.4618L11.3019 59.4019L11.2487 58.5168L10.3637 58.4636L10.3037 59.4618ZM11.1386 59.4618L11.0786 58.4636L10.1936 58.5168L10.1404 59.4019L11.1386 59.4618ZM11.1386 58.6269L10.1404 58.6869L10.1936 59.572L11.0786 59.6251L11.1386 58.6269ZM3.41544 60.0426L10.3637 59.6251L10.2437 57.6287L3.2955 58.0462L3.41544 60.0426ZM11.3019 58.6869L11.7193 51.7387L9.72294 51.6187L9.30549 58.567L11.3019 58.6869ZM11.7193 66.3501L11.3019 59.4019L9.30549 59.5218L9.72294 66.47L11.7193 66.3501ZM10.3637 58.4636L3.41544 58.0462L3.2955 60.0426L10.2437 60.46L10.3637 58.4636ZM18.0268 58.0462L11.0786 58.4636L11.1986 60.46L18.1468 60.0426L18.0268 58.0462ZM10.1404 59.4019L9.72294 66.3501L11.7193 66.47L12.1368 59.5218L10.1404 59.4019ZM9.72294 51.7387L10.1404 58.6869L12.1368 58.567L11.7193 51.6187L9.72294 51.7387ZM11.0786 59.6251L18.0268 60.0426L18.1468 58.0462L11.1986 57.6287L11.0786 59.6251Z" fill="#DA0530" mask="url(#path-4-inside-1_1076_5787)"/>
<mask id="path-6-inside-2_1076_5787" fill="white">
<path d="M7.85753 56.1786L10.7229 58.7192L13.5882 56.1786L11.0477 59.0439L13.5882 61.9093L10.7229 59.3687L7.85753 61.9093L10.3981 59.0439L7.85753 56.1786Z"/>
</mask>
<path d="M7.85753 56.1786L10.7229 58.7192L13.5882 56.1786L11.0477 59.0439L13.5882 61.9093L10.7229 59.3687L7.85753 61.9093L10.3981 59.0439L7.85753 56.1786Z" fill="url(#paint4_linear_1076_5787)"/>
<path d="M7.85753 56.1786L8.52096 55.4304L7.10929 56.842L7.85753 56.1786ZM13.5882 56.1786L14.3365 56.842L12.9248 55.4304L13.5882 56.1786ZM13.5882 61.9093L12.9248 62.6575L14.3365 61.2459L13.5882 61.9093ZM7.85753 61.9093L7.10929 61.2459L8.52096 62.6575L7.85753 61.9093ZM10.3981 59.0439L11.1463 59.7074L11.7346 59.0439L11.1463 58.3805L10.3981 59.0439ZM10.7229 59.3687L11.3863 58.6205L10.7229 58.0323L10.0595 58.6205L10.7229 59.3687ZM11.0477 59.0439L10.2994 58.3805L9.7112 59.0439L10.2994 59.7074L11.0477 59.0439ZM10.7229 58.7192L10.0595 59.4674L10.7229 60.0556L11.3863 59.4674L10.7229 58.7192ZM8.60578 62.5727L11.1463 59.7074L9.64985 58.3805L7.10929 61.2459L8.60578 62.5727ZM11.1463 58.3805L8.60578 55.5152L7.10929 56.842L9.64985 59.7074L11.1463 58.3805ZM14.2517 61.1611L11.3863 58.6205L10.0595 60.117L12.9248 62.6575L14.2517 61.1611ZM10.0595 58.6205L7.19411 61.1611L8.52096 62.6575L11.3863 60.117L10.0595 58.6205ZM12.84 55.5152L10.2994 58.3805L11.7959 59.7074L14.3365 56.842L12.84 55.5152ZM10.2994 59.7074L12.84 62.5727L14.3365 61.2459L11.7959 58.3805L10.2994 59.7074ZM7.19411 56.9268L10.0595 59.4674L11.3863 57.9709L8.52096 55.4304L7.19411 56.9268ZM11.3863 59.4674L14.2517 56.9268L12.9248 55.4304L10.0595 57.9709L11.3863 59.4674Z" fill="#DA0530" mask="url(#path-6-inside-2_1076_5787)"/>
<mask id="path-8-inside-3_1076_5787" fill="white">
<path d="M58.2875 12.8096L58.705 19.7578L65.6532 20.1752L58.705 20.5927L58.2875 27.5409L57.8701 20.5927L50.9219 20.1752L57.8701 19.7578L58.2875 12.8096Z"/>
</mask>
<path d="M58.2875 12.8096L58.705 19.7578L65.6532 20.1752L58.705 20.5927L58.2875 27.5409L57.8701 20.5927L50.9219 20.1752L57.8701 19.7578L58.2875 12.8096Z" fill="url(#paint5_linear_1076_5787)"/>
<path d="M58.2875 12.8096L59.2857 12.7496H57.2893L58.2875 12.8096ZM65.6532 20.1752L65.7132 21.1734V19.177L65.6532 20.1752ZM58.2875 27.5409L57.2893 27.6009H59.2857L58.2875 27.5409ZM50.9219 20.1752L50.8619 19.177V21.1734L50.9219 20.1752ZM57.8701 19.7578L57.9301 20.756L58.8151 20.7028L58.8683 19.8178L57.8701 19.7578ZM57.8701 20.5927L58.8683 20.5327L58.8151 19.6477L57.9301 19.5945L57.8701 20.5927ZM58.705 20.5927L58.645 19.5945L57.76 19.6477L57.7068 20.5327L58.705 20.5927ZM58.705 19.7578L57.7068 19.8178L57.76 20.7028L58.645 20.756L58.705 19.7578ZM50.9818 21.1734L57.9301 20.756L57.8101 18.7596L50.8619 19.177L50.9818 21.1734ZM58.8683 19.8178L59.2857 12.8695L57.2893 12.7496L56.8719 19.6978L58.8683 19.8178ZM59.2857 27.4809L58.8683 20.5327L56.8719 20.6527L57.2893 27.6009L59.2857 27.4809ZM57.9301 19.5945L50.9818 19.177L50.8619 21.1734L57.8101 21.5909L57.9301 19.5945ZM65.5932 19.177L58.645 19.5945L58.765 21.5909L65.7132 21.1734L65.5932 19.177ZM57.7068 20.5327L57.2893 27.4809L59.2857 27.6009L59.7032 20.6527L57.7068 20.5327ZM57.2893 12.8695L57.7068 19.8178L59.7032 19.6978L59.2857 12.7496L57.2893 12.8695ZM58.645 20.756L65.5932 21.1734L65.7132 19.177L58.765 18.7596L58.645 20.756Z" fill="#DA0530" mask="url(#path-8-inside-3_1076_5787)"/>
<mask id="path-10-inside-4_1076_5787" fill="white">
<path d="M55.42 17.3095L58.2854 19.85L61.1507 17.3095L58.6102 20.1748L61.1507 23.0402L58.2854 20.4996L55.42 23.0402L57.9606 20.1748L55.42 17.3095Z"/>
</mask>
<path d="M55.42 17.3095L58.2854 19.85L61.1507 17.3095L58.6102 20.1748L61.1507 23.0402L58.2854 20.4996L55.42 23.0402L57.9606 20.1748L55.42 17.3095Z" fill="url(#paint6_linear_1076_5787)"/>
<path d="M55.42 17.3095L56.0835 16.5612L54.6718 17.9729L55.42 17.3095ZM61.1507 17.3095L61.899 17.9729L60.4873 16.5612L61.1507 17.3095ZM61.1507 23.0402L60.4873 23.7884L61.899 22.3767L61.1507 23.0402ZM55.42 23.0402L54.6718 22.3767L56.0835 23.7884L55.42 23.0402ZM57.9606 20.1748L58.7088 20.8382L59.2971 20.1748L58.7088 19.5114L57.9606 20.1748ZM58.2854 20.4996L58.9488 19.7514L58.2854 19.1631L57.622 19.7514L58.2854 20.4996ZM58.6102 20.1748L57.8619 19.5114L57.2737 20.1748L57.8619 20.8382L58.6102 20.1748ZM58.2854 19.85L57.622 20.5983L58.2854 21.1865L58.9488 20.5983L58.2854 19.85ZM56.1683 23.7036L58.7088 20.8382L57.2124 19.5114L54.6718 22.3767L56.1683 23.7036ZM58.7088 19.5114L56.1683 16.646L54.6718 17.9729L57.2124 20.8382L58.7088 19.5114ZM61.8142 22.2919L58.9488 19.7514L57.622 21.2478L60.4873 23.7884L61.8142 22.2919ZM57.622 19.7514L54.7566 22.2919L56.0835 23.7884L58.9488 21.2478L57.622 19.7514ZM60.4025 16.646L57.8619 19.5114L59.3584 20.8382L61.899 17.9729L60.4025 16.646ZM57.8619 20.8382L60.4025 23.7036L61.899 22.3767L59.3584 19.5114L57.8619 20.8382ZM54.7566 18.0577L57.622 20.5983L58.9488 19.1018L56.0835 16.5612L54.7566 18.0577ZM58.9488 20.5983L61.8142 18.0577L60.4873 16.5612L57.622 19.1018L58.9488 20.5983Z" fill="#DA0530" mask="url(#path-10-inside-4_1076_5787)"/>
<defs>
<linearGradient id="paint0_linear_1076_5787" x1="32.8576" y1="-1.62756" x2="82.6431" y2="41.0117" gradientUnits="userSpaceOnUse">
<stop stop-color="#A8F5FF"/>
<stop offset="0.169834" stop-color="#FF4E72"/>
<stop offset="0.790438" stop-color="#DA0530"/>
<stop offset="0.98" stop-color="#E9A2C2"/>
</linearGradient>
<linearGradient id="paint1_linear_1076_5787" x1="-2.06378" y1="-20.7941" x2="81.1947" y2="-17.2991" gradientUnits="userSpaceOnUse">
<stop stop-color="#A8F5FF"/>
<stop offset="0.169834" stop-color="#FF4E72"/>
<stop offset="0.790438" stop-color="#DA0530"/>
<stop offset="0.98" stop-color="#E9A2C2"/>
</linearGradient>
<linearGradient id="paint2_linear_1076_5787" x1="-1.18383" y1="32.1661" x2="32.5645" y2="1.13698" gradientUnits="userSpaceOnUse">
<stop stop-color="#A8F5FF"/>
<stop offset="0.169834" stop-color="#FF4E72"/>
<stop offset="0.790438" stop-color="#DA0530"/>
<stop offset="0.98" stop-color="#E9A2C2"/>
</linearGradient>
<linearGradient id="paint3_linear_1076_5787" x1="2.2968" y1="46.286" x2="19.7035" y2="47.0167" gradientUnits="userSpaceOnUse">
<stop stop-color="#A8F5FF"/>
<stop offset="0.169834" stop-color="#FF4E72"/>
<stop offset="0.790438" stop-color="#DA0530"/>
<stop offset="0.98" stop-color="#E9A2C2"/>
</linearGradient>
<linearGradient id="paint4_linear_1076_5787" x1="2.4825" y1="57.3579" x2="9.53819" y2="50.8707" gradientUnits="userSpaceOnUse">
<stop stop-color="#A8F5FF"/>
<stop offset="0.169834" stop-color="#FF4E72"/>
<stop offset="0.790438" stop-color="#DA0530"/>
<stop offset="0.98" stop-color="#E9A2C2"/>
</linearGradient>
<linearGradient id="paint5_linear_1076_5787" x1="49.8632" y1="7.41685" x2="67.2699" y2="8.14754" gradientUnits="userSpaceOnUse">
<stop stop-color="#A8F5FF"/>
<stop offset="0.169834" stop-color="#FF4E72"/>
<stop offset="0.790438" stop-color="#DA0530"/>
<stop offset="0.98" stop-color="#E9A2C2"/>
</linearGradient>
<linearGradient id="paint6_linear_1076_5787" x1="50.045" y1="18.4888" x2="57.1007" y2="12.0016" gradientUnits="userSpaceOnUse">
<stop stop-color="#A8F5FF"/>
<stop offset="0.169834" stop-color="#FF4E72"/>
<stop offset="0.790438" stop-color="#DA0530"/>
<stop offset="0.98" stop-color="#E9A2C2"/>
</linearGradient>
</defs>
</svg>
