<svg width="1315" height="808" viewBox="0 0 1315 808" fill="none" xmlns="http://www.w3.org/2000/svg">
<g opacity="0.9" filter="url(#filter0_f_876_2604)">
<circle cx="657.491" cy="300.709" r="248.709" fill="url(#paint0_angular_876_2604)"/>
<circle cx="657.491" cy="300.709" r="248.709" fill="url(#paint1_radial_876_2604)"/>
</g>
<circle opacity="0.23" cx="657.893" cy="300.31" r="107.787" fill="url(#paint2_linear_876_2604)"/>
<circle opacity="0.23" cx="657.893" cy="299.512" r="107.787" fill="url(#paint3_linear_876_2604)"/>
<circle opacity="0.9" cx="657.892" cy="337.038" r="221.962" fill="url(#paint4_linear_876_2604)"/>
<path opacity="0.2" d="M809.244 231.364C823.289 260.539 819.006 295.253 800.524 327.864C782.044 360.472 749.409 390.883 706.972 411.312C664.535 431.741 620.408 438.281 583.395 432.388C546.376 426.494 516.571 408.19 502.527 379.015C488.482 349.839 492.765 315.126 511.247 282.514C529.727 249.907 562.362 219.495 604.799 199.067C647.236 178.638 691.363 172.097 728.376 177.99C765.395 183.885 795.2 202.188 809.244 231.364Z" stroke="url(#paint5_radial_876_2604)" stroke-width="2"/>
<path d="M918.789 178.63C923.823 189.087 921.616 202.643 912.87 218.405C904.139 234.138 889.002 251.854 868.609 270.448C827.833 307.626 766.222 348.156 693.437 383.194C620.652 418.232 550.543 441.111 496.05 449.794C468.797 454.136 445.508 454.918 427.765 451.93C409.989 448.936 398.017 442.205 392.983 431.748C387.949 421.291 390.156 407.735 398.902 391.974C407.633 376.24 422.771 358.524 443.163 339.931C483.939 302.752 545.55 262.222 618.335 227.184C691.12 192.146 761.229 169.267 815.722 160.585C842.975 156.242 866.264 155.46 884.008 158.449C901.783 161.443 913.755 168.174 918.789 178.63Z" stroke="url(#paint6_radial_876_2604)" stroke-width="2"/>
<path d="M837.954 410.334C833.171 416.347 823.918 418.659 810.808 417.271C797.755 415.89 781.189 410.866 762.211 402.637C724.271 386.184 676.908 357.014 629.141 319.015C581.373 281.015 542.3 241.425 517.737 208.156C505.451 191.515 496.831 176.502 492.549 164.094C488.25 151.633 488.422 142.097 493.205 136.084C497.989 130.071 507.242 127.759 520.351 129.146C533.404 130.528 549.971 135.551 568.948 143.781C606.889 160.233 654.251 189.403 702.019 227.403C749.786 265.402 788.859 304.992 813.422 338.262C825.708 354.902 834.329 369.915 838.61 382.323C842.91 394.785 842.737 404.321 837.954 410.334Z" stroke="url(#paint7_radial_876_2604)" stroke-width="2"/>
<circle opacity="0.23" cx="657.891" cy="300.31" r="96.6095" fill="url(#paint8_linear_876_2604)"/>
<path fill-rule="evenodd" clip-rule="evenodd" d="M596.611 221.033C577.901 234.183 550.488 265.947 556.206 305.441L551.202 306.177C545.09 263.963 574.288 230.568 593.706 216.922L596.611 221.033Z" fill="url(#paint9_linear_876_2604)"/>
<path opacity="0.7" fill-rule="evenodd" clip-rule="evenodd" d="M524.502 174.428C485.329 207.804 430.549 284.709 451.621 372.005L440.562 374.701C418.04 281.392 476.479 200.462 517.133 165.824L524.502 174.428Z" fill="url(#paint10_linear_876_2604)"/>
<path opacity="0.23" fill-rule="evenodd" clip-rule="evenodd" d="M778.886 502.575C816.571 481.59 874.244 427.4 871.29 352.19L880.821 351.795C883.979 432.185 822.636 489.081 783.526 510.858L778.886 502.575Z" fill="url(#paint11_linear_876_2604)"/>
<path fill-rule="evenodd" clip-rule="evenodd" d="M699.058 392.195C720.391 383.958 754.669 359.761 758.667 320.056L763.7 320.552C759.427 362.992 723.023 388.338 700.883 396.887L699.058 392.195Z" fill="url(#paint12_linear_876_2604)"/>
<g filter="url(#filter1_d_876_2604)">
<path fill-rule="evenodd" clip-rule="evenodd" d="M658.29 397.642C711.866 397.642 755.299 354.21 755.299 300.633C755.299 249.009 714.973 206.803 664.103 203.796C701.67 206.371 731.346 237.661 731.346 275.882C731.346 315.789 698.995 348.14 659.088 348.14C619.182 348.14 586.831 315.789 586.831 275.882C586.831 236.099 618.982 203.825 658.718 203.626C658.576 203.625 658.433 203.625 658.29 203.625C604.714 203.625 561.281 247.057 561.281 300.633C561.281 354.21 604.714 397.642 658.29 397.642Z" fill="url(#paint13_linear_876_2604)"/>
</g>
<circle cx="501.399" cy="180.546" r="2.4437" fill="#222222" stroke="white" stroke-width="1.5"/>
<path d="M501.398 164.578L501.398 196.515" stroke="white" stroke-width="1.5"/>
<path d="M493.414 166.717L509.383 194.376" stroke="white" stroke-width="1.5"/>
<path d="M497.266 165.122L505.532 195.971" stroke="white" stroke-width="1.5"/>
<path d="M509.383 166.717L493.414 194.376" stroke="white" stroke-width="1.5"/>
<path d="M505.531 165.122L497.265 195.971" stroke="white" stroke-width="1.5"/>
<path d="M512.689 169.255L490.107 191.838" stroke="white" stroke-width="1.5"/>
<path d="M485.43 180.546L517.367 180.546" stroke="white" stroke-width="1.5"/>
<path d="M487.57 172.562L515.229 188.531" stroke="white" stroke-width="1.5"/>
<path d="M485.975 176.413L516.823 184.679" stroke="white" stroke-width="1.5"/>
<path d="M487.57 188.531L515.229 172.562" stroke="white" stroke-width="1.5"/>
<path d="M485.975 184.679L516.823 176.414" stroke="white" stroke-width="1.5"/>
<path d="M490.105 169.255L512.688 191.838" stroke="white" stroke-width="1.5"/>
<circle cx="400.483" cy="384.943" r="3.42118" fill="#222222" stroke="white" stroke-width="2.1"/>
<path d="M400.48 362.587L400.48 407.299" stroke="white" stroke-width="2.1"/>
<path d="M389.305 365.583L411.661 404.304" stroke="white" stroke-width="2.1"/>
<path d="M394.695 363.349L406.268 406.537" stroke="white" stroke-width="2.1"/>
<path d="M411.658 365.583L389.302 404.304" stroke="white" stroke-width="2.1"/>
<path d="M406.268 363.349L394.695 406.537" stroke="white" stroke-width="2.1"/>
<path d="M416.289 369.135L384.673 400.751" stroke="white" stroke-width="2.1"/>
<path d="M378.125 384.943L422.837 384.943" stroke="white" stroke-width="2.1"/>
<path d="M381.121 373.765L419.843 396.121" stroke="white" stroke-width="2.1"/>
<path d="M378.889 379.157L422.077 390.729" stroke="white" stroke-width="2.1"/>
<path d="M381.121 396.121L419.843 373.765" stroke="white" stroke-width="2.1"/>
<path d="M378.889 390.729L422.077 379.157" stroke="white" stroke-width="2.1"/>
<path d="M384.672 369.135L416.288 400.751" stroke="white" stroke-width="2.1"/>
<path fill-rule="evenodd" clip-rule="evenodd" d="M660.393 194.676C659.597 197.847 657.566 200.705 654.511 202.469C652.998 203.343 651.378 203.865 649.746 204.06C652.909 204.859 655.757 206.887 657.517 209.935C658.39 211.447 658.911 213.066 659.106 214.697C659.908 211.539 661.935 208.695 664.98 206.937C666.495 206.062 668.117 205.54 669.751 205.345C666.591 204.545 663.745 202.518 661.987 199.472C661.107 197.949 660.585 196.318 660.393 194.676Z" fill="url(#paint14_linear_876_2604)"/>
<path fill-rule="evenodd" clip-rule="evenodd" d="M833.789 153.061L831.11 155.74L829.77 157.08L828.709 156.019L830.049 154.679L832.728 152L833.789 153.061ZM827.091 159.759L825.751 161.099L823.072 163.778L822.011 162.717L824.69 160.038L826.03 158.698L827.091 159.759ZM822.002 153.061L824.681 155.74L826.021 157.08L827.082 156.019L825.742 154.679L823.062 152L822.002 153.061ZM828.7 159.759L830.04 161.099L832.719 163.778L833.78 162.717L831.101 160.038L829.761 158.698L828.7 159.759Z" fill="white"/>
<g filter="url(#filter2_f_876_2604)">
<path d="M659.922 280.143L680.978 316.613H638.867L659.922 280.143Z" fill="white"/>
</g>
<path d="M659.922 280.143L680.978 316.613H638.867L659.922 280.143Z" fill="url(#paint15_linear_876_2604)"/>
<g filter="url(#filter3_f_876_2604)">
<circle cx="659.923" cy="273.962" r="7.00545" fill="#F3F4FE"/>
</g>
<circle cx="659.923" cy="273.962" r="7.00545" fill="#F3F4FE"/>
<path d="M657.038 235.638L644.676 248" stroke="white" stroke-width="2"/>
<path d="M633.137 235.638L645.5 248" stroke="white" stroke-width="2"/>
<path d="M666.517 235.638L654.154 248" stroke="white" stroke-width="2"/>
<path d="M675.581 235.638L663.219 248" stroke="white" stroke-width="2"/>
<circle cx="786.98" cy="413.431" r="5.33377" fill="#F3F4FE"/>
<defs>
<filter id="filter0_f_876_2604" x="0.78125" y="-356" width="1313.42" height="1313.42" filterUnits="userSpaceOnUse" color-interpolation-filters="sRGB">
<feFlood flood-opacity="0" result="BackgroundImageFix"/>
<feBlend mode="normal" in="SourceGraphic" in2="BackgroundImageFix" result="shape"/>
<feGaussianBlur stdDeviation="204" result="effect1_foregroundBlur_876_2604"/>
</filter>
<filter id="filter1_d_876_2604" x="559.447" y="201.79" width="198.193" height="198.193" filterUnits="userSpaceOnUse" color-interpolation-filters="sRGB">
<feFlood flood-opacity="0" result="BackgroundImageFix"/>
<feColorMatrix in="SourceAlpha" type="matrix" values="0 0 0 0 0 0 0 0 0 0 0 0 0 0 0 0 0 0 127 0" result="hardAlpha"/>
<feOffset dx="0.253526" dy="0.253526"/>
<feGaussianBlur stdDeviation="1.04391"/>
<feComposite in2="hardAlpha" operator="out"/>
<feColorMatrix type="matrix" values="0 0 0 0 0.45375 0 0 0 0 0.565786 0 0 0 0 0.97125 0 0 0 0.5 0"/>
<feBlend mode="normal" in2="BackgroundImageFix" result="effect1_dropShadow_876_2604"/>
<feBlend mode="normal" in="SourceGraphic" in2="effect1_dropShadow_876_2604" result="shape"/>
</filter>
<filter id="filter2_f_876_2604" x="598.067" y="239.343" width="123.711" height="118.07" filterUnits="userSpaceOnUse" color-interpolation-filters="sRGB">
<feFlood flood-opacity="0" result="BackgroundImageFix"/>
<feBlend mode="normal" in="SourceGraphic" in2="BackgroundImageFix" result="shape"/>
<feGaussianBlur stdDeviation="20.4" result="effect1_foregroundBlur_876_2604"/>
</filter>
<filter id="filter3_f_876_2604" x="647.618" y="261.656" width="24.6117" height="24.6109" filterUnits="userSpaceOnUse" color-interpolation-filters="sRGB">
<feFlood flood-opacity="0" result="BackgroundImageFix"/>
<feBlend mode="normal" in="SourceGraphic" in2="BackgroundImageFix" result="shape"/>
<feGaussianBlur stdDeviation="2.65" result="effect1_foregroundBlur_876_2604"/>
</filter>
<radialGradient id="paint0_angular_876_2604" cx="0" cy="0" r="1" gradientUnits="userSpaceOnUse" gradientTransform="translate(668 8.11013) rotate(90) scale(541.309 494.669)">
<stop stop-color="#32314B"/>
<stop offset="0.0729167" stop-color="#585C73"/>
<stop offset="0.947917" stop-color="#414057"/>
<stop offset="1" stop-color="#898799"/>
</radialGradient>
<radialGradient id="paint1_radial_876_2604" cx="0" cy="0" r="1" gradientUnits="userSpaceOnUse" gradientTransform="translate(668 8.11013) rotate(90) scale(541.309 494.669)">
<stop stop-color="#C894F0"/>
<stop offset="0.0729167" stop-color="#BE9FFF"/>
<stop offset="0.947917" stop-color="#718ADF"/>
<stop offset="1" stop-color="#BBC4F7"/>
</radialGradient>
<linearGradient id="paint2_linear_876_2604" x1="657.893" y1="204.393" x2="657.893" y2="408.098" gradientUnits="userSpaceOnUse">
<stop stop-color="white" stop-opacity="0"/>
<stop offset="1" stop-color="#4A70FF"/>
</linearGradient>
<linearGradient id="paint3_linear_876_2604" x1="657.893" y1="203.594" x2="657.893" y2="407.299" gradientUnits="userSpaceOnUse">
<stop stop-color="white" stop-opacity="0"/>
<stop offset="1" stop-color="#4A70FF"/>
</linearGradient>
<linearGradient id="paint4_linear_876_2604" x1="657.892" y1="104.297" x2="657.892" y2="559" gradientUnits="userSpaceOnUse">
<stop stop-color="#E1DFFF"/>
<stop offset="0.0616219" stop-color="#4EB5FF"/>
<stop offset="0.277761" stop-color="#2D43CC" stop-opacity="0.5"/>
<stop offset="1" stop-color="#13206B" stop-opacity="0"/>
</linearGradient>
<radialGradient id="paint5_radial_876_2604" cx="0" cy="0" r="1" gradientUnits="userSpaceOnUse" gradientTransform="translate(654.503 326.737) rotate(57.563) scale(55.468 608.962)">
<stop stop-color="#172672" stop-opacity="0"/>
<stop offset="1" stop-color="#63B4FF"/>
</radialGradient>
<radialGradient id="paint6_radial_876_2604" cx="0" cy="0" r="1" gradientUnits="userSpaceOnUse" gradientTransform="translate(645.583 325.545) rotate(46.2046) scale(68.5149 1645.71)">
<stop stop-color="#172672" stop-opacity="0"/>
<stop offset="0.465" stop-color="#424FB5"/>
<stop offset="1" stop-color="#4A92D6"/>
</radialGradient>
<radialGradient id="paint7_radial_876_2604" cx="0" cy="0" r="1" gradientUnits="userSpaceOnUse" gradientTransform="translate(648.996 272.067) rotate(52.6462) scale(83.743 2199.98)">
<stop stop-color="#5E5EB3"/>
<stop offset="1" stop-color="#4B93D6"/>
</radialGradient>
<linearGradient id="paint8_linear_876_2604" x1="657.891" y1="214.34" x2="657.891" y2="396.92" gradientUnits="userSpaceOnUse">
<stop stop-color="white" stop-opacity="0"/>
<stop offset="1" stop-color="#4A70FF"/>
</linearGradient>
<linearGradient id="paint9_linear_876_2604" x1="558.502" y1="256.478" x2="566.407" y2="259.913" gradientUnits="userSpaceOnUse">
<stop stop-color="#FFFBE8"/>
<stop offset="0.826287" stop-color="#3D5BCB" stop-opacity="0"/>
</linearGradient>
<linearGradient id="paint10_linear_876_2604" x1="446.526" y1="261.817" x2="464.956" y2="267.86" gradientUnits="userSpaceOnUse">
<stop stop-color="#FFFBE8"/>
<stop offset="0.826287" stop-color="#3D5BCB" stop-opacity="0"/>
</linearGradient>
<linearGradient id="paint11_linear_876_2604" x1="857.347" y1="443.585" x2="843.195" y2="435.587" gradientUnits="userSpaceOnUse">
<stop stop-color="#FFFBE8"/>
<stop offset="0.826287" stop-color="#3D5BCB" stop-opacity="0"/>
</linearGradient>
<linearGradient id="paint12_linear_876_2604" x1="744.604" y1="367.013" x2="737.764" y2="361.769" gradientUnits="userSpaceOnUse">
<stop stop-color="#FFFBE8"/>
<stop offset="0.826287" stop-color="#3D5BCB" stop-opacity="0"/>
</linearGradient>
<linearGradient id="paint13_linear_876_2604" x1="596.851" y1="203.625" x2="714.878" y2="392.792" gradientUnits="userSpaceOnUse">
<stop stop-color="#97ACFA"/>
<stop offset="0.405" stop-color="#C0D1FF"/>
<stop offset="0.61" stop-color="#2D9AFF"/>
<stop offset="0.885" stop-color="#6663FF"/>
</linearGradient>
<linearGradient id="paint14_linear_876_2604" x1="659.093" y1="201.258" x2="652.998" y2="209.836" gradientUnits="userSpaceOnUse">
<stop stop-color="white"/>
<stop offset="0.479167" stop-color="#98CDFF"/>
<stop offset="1" stop-color="#FCFCFF"/>
</linearGradient>
<linearGradient id="paint15_linear_876_2604" x1="650.558" y1="298.13" x2="656.219" y2="331.616" gradientUnits="userSpaceOnUse">
<stop stop-color="white"/>
<stop offset="0.479167" stop-color="#98CDFF"/>
<stop offset="1" stop-color="#FCFCFF"/>
</linearGradient>
</defs>
</svg>
