<svg width="1440" height="568" viewBox="0 0 1440 568" fill="none" xmlns="http://www.w3.org/2000/svg">
<g filter="url(#filter0_d_0_1)">
<g clip-path="url(#clip0_0_1)">
<rect x="-33" y="-164" width="1631" height="931" rx="57.075" fill="url(#paint0_linear_0_1)"/>
<rect x="-33" y="-164" width="1631" height="931" rx="57.075" fill="url(#paint1_linear_0_1)"/>
<rect x="-33" y="-164" width="1631" height="931" rx="57.075" fill="url(#paint2_linear_0_1)"/>
<path d="M435.28 349.789C394.983 499.107 105.366 696.617 -87.2393 759.909C-249.144 794.345 -519.562 814.414 -305.995 619.201C-39.0368 375.184 475.577 200.472 435.28 349.789Z" fill="url(#paint3_linear_0_1)"/>
<path d="M419.44 456.299C406.862 604.328 230.49 804.628 105.565 871.999C104.496 872.575 103.433 873.039 102.284 873.432C-4.89254 910.01 -185.369 893.194 -59.8465 696.672C97.8921 449.713 432.071 307.646 419.44 456.299Z" fill="url(#paint4_linear_0_1)"/>
<path d="M827.313 376.756C1017.32 74.8327 1548.53 -262.469 2198.12 -217.491C2199.44 -217.4 2200.81 -217.188 2202.09 -216.864C2262.63 -201.61 2264.53 -172.763 2265.56 -127.175C2265.75 -118.609 2261.15 -110.438 2253.81 -106.01C1558.49 313.71 1290.41 406.04 847.18 411.041C829.111 411.244 817.689 392.05 827.313 376.756Z" fill="url(#paint5_linear_0_1)"/>
<path d="M864.588 146.569C972.497 -176.595 1474.63 -527.956 1788.55 -609.439C1789.73 -609.744 1790.86 -609.944 1792.07 -610.059C2050.05 -634.734 2447.02 -502.579 2069.26 -123.571C1586.49 360.806 756.482 470.326 864.588 146.569Z" fill="url(#paint6_linear_0_1)"/>
</g>
<rect x="-30.6219" y="-161.622" width="1626.24" height="926.244" rx="54.6969" stroke="url(#paint7_linear_0_1)" stroke-width="4.75625"/>
</g>
<g opacity="0.9" filter="url(#filter1_f_0_1)">
<circle cx="704.062" cy="243.275" r="182.275" fill="url(#paint8_angular_0_1)"/>
<circle cx="704.062" cy="243.275" r="182.275" fill="url(#paint9_radial_0_1)"/>
</g>
<circle opacity="0.23" cx="704.357" cy="242.983" r="78.9956" fill="url(#paint10_linear_0_1)"/>
<circle opacity="0.23" cx="704.357" cy="242.397" r="78.9956" fill="url(#paint11_linear_0_1)"/>
<circle opacity="0.9" cx="704.354" cy="269.9" r="162.673" fill="url(#paint12_linear_0_1)"/>
<path opacity="0.2" d="M815.039 192.569C825.283 213.85 822.172 239.196 808.656 263.045C795.142 286.889 771.268 309.142 740.21 324.093C709.151 339.044 676.866 343.826 649.8 339.516C622.729 335.206 600.976 321.829 590.732 300.548C580.487 279.267 583.598 253.92 597.114 230.072C610.628 206.227 634.502 183.975 665.561 169.023C696.619 154.072 728.904 149.291 755.97 153.6C783.042 157.91 804.794 171.288 815.039 192.569Z" stroke="url(#paint13_radial_0_1)" stroke-width="2"/>
<path d="M895.321 153.921C898.954 161.468 897.385 171.302 890.99 182.826C884.611 194.321 873.541 207.282 858.606 220.899C828.746 248.125 783.616 277.815 730.289 303.486C676.963 329.157 625.607 345.914 585.702 352.273C565.743 355.453 548.707 356.022 535.743 353.839C522.747 351.649 514.081 346.742 510.448 339.195C506.815 331.649 508.384 321.814 514.779 310.291C521.158 298.796 532.229 285.834 547.164 272.217C577.023 244.991 622.154 215.301 675.48 189.63C728.807 163.96 780.163 147.202 820.068 140.844C840.027 137.663 857.063 137.094 870.027 139.278C883.023 141.467 891.689 146.375 895.321 153.921Z" stroke="url(#paint14_radial_0_1)" stroke-width="2"/>
<path d="M836.109 323.451C832.693 327.745 826.036 329.45 816.452 328.436C806.924 327.427 794.811 323.757 780.914 317.731C753.135 305.685 718.444 284.321 683.449 256.482C648.454 228.643 619.836 199.644 601.852 175.285C592.855 163.1 586.555 152.122 583.43 143.065C580.286 133.954 580.45 127.085 583.867 122.79C587.283 118.495 593.94 116.79 603.524 117.805C613.052 118.813 625.166 122.484 639.062 128.51C666.841 140.556 701.532 161.92 736.527 189.759C771.523 217.598 800.14 246.596 818.125 270.955C827.121 283.141 833.421 294.118 836.547 303.176C839.69 312.287 839.526 319.156 836.109 323.451Z" stroke="url(#paint15_radial_0_1)" stroke-width="2"/>
<circle opacity="0.23" cx="704.354" cy="242.983" r="70.8035" fill="url(#paint16_linear_0_1)"/>
<path fill-rule="evenodd" clip-rule="evenodd" d="M659.445 175.021C645.732 184.144 625.642 206.182 629.832 233.583L626.165 234.094C621.686 204.806 643.085 181.637 657.315 172.169L659.445 175.021Z" fill="url(#paint17_linear_0_1)"/>
<path opacity="0.7" fill-rule="evenodd" clip-rule="evenodd" d="M606.595 142.687C577.886 165.843 537.739 219.2 553.182 279.765L545.077 281.635C528.571 216.898 571.4 160.749 601.194 136.717L606.595 142.687Z" fill="url(#paint18_linear_0_1)"/>
<path opacity="0.23" fill-rule="evenodd" clip-rule="evenodd" d="M793.029 370.354C820.648 355.795 862.916 318.198 860.751 266.018L867.736 265.743C870.05 321.518 825.093 360.992 796.43 376.101L793.029 370.354Z" fill="url(#paint19_linear_0_1)"/>
<path fill-rule="evenodd" clip-rule="evenodd" d="M734.524 293.773C750.159 288.058 775.281 271.271 778.211 243.723L781.9 244.067C778.768 273.512 752.088 291.097 735.862 297.028L734.524 293.773Z" fill="url(#paint20_linear_0_1)"/>
<g filter="url(#filter2_d_0_1)">
<path fill-rule="evenodd" clip-rule="evenodd" d="M704.647 314.316C743.912 314.316 775.743 282.485 775.743 243.219C775.743 205.384 746.189 174.452 708.906 172.249C736.439 174.136 758.188 197.068 758.188 225.08C758.188 254.327 734.479 278.036 705.232 278.036C675.985 278.036 652.276 254.327 652.276 225.08C652.276 195.923 675.839 172.27 704.961 172.124C704.856 172.124 704.752 172.123 704.647 172.123C665.382 172.123 633.551 203.954 633.551 243.219C633.551 282.485 665.382 314.316 704.647 314.316Z" fill="url(#paint21_linear_0_1)"/>
</g>
<circle cx="589.665" cy="155.21" r="1.59061" fill="#222222" stroke="white" stroke-width="1.5"/>
<path d="M589.664 143.507L589.664 166.913" stroke="white" stroke-width="1.5"/>
<path d="M583.812 145.074L595.516 165.345" stroke="white" stroke-width="1.5"/>
<path d="M586.635 143.905L592.693 166.514" stroke="white" stroke-width="1.5"/>
<path d="M595.516 145.074L583.813 165.345" stroke="white" stroke-width="1.5"/>
<path d="M592.693 143.905L586.635 166.514" stroke="white" stroke-width="1.5"/>
<path d="M597.938 146.934L581.387 163.485" stroke="white" stroke-width="1.5"/>
<path d="M577.961 155.21L601.367 155.21" stroke="white" stroke-width="1.5"/>
<path d="M579.529 149.358L599.8 161.061" stroke="white" stroke-width="1.5"/>
<path d="M578.361 152.181L600.97 158.239" stroke="white" stroke-width="1.5"/>
<path d="M579.529 161.061L599.8 149.358" stroke="white" stroke-width="1.5"/>
<path d="M578.361 158.239L600.97 152.181" stroke="white" stroke-width="1.5"/>
<path d="M581.387 146.934L597.937 163.485" stroke="white" stroke-width="1.5"/>
<circle cx="515.705" cy="305.009" r="2.22686" fill="#222222" stroke="white" stroke-width="2.1"/>
<path d="M515.705 288.624L515.705 321.393" stroke="white" stroke-width="2.1"/>
<path d="M507.514 290.82L523.898 319.198" stroke="white" stroke-width="2.1"/>
<path d="M511.465 289.183L519.946 320.835" stroke="white" stroke-width="2.1"/>
<path d="M523.896 290.82L507.512 319.198" stroke="white" stroke-width="2.1"/>
<path d="M519.947 289.183L511.466 320.835" stroke="white" stroke-width="2.1"/>
<path d="M527.291 293.423L504.12 316.594" stroke="white" stroke-width="2.1"/>
<path d="M499.32 305.009L532.089 305.009" stroke="white" stroke-width="2.1"/>
<path d="M501.516 296.817L529.894 313.201" stroke="white" stroke-width="2.1"/>
<path d="M499.881 300.768L531.533 309.249" stroke="white" stroke-width="2.1"/>
<path d="M501.516 313.201L529.894 296.817" stroke="white" stroke-width="2.1"/>
<path d="M499.881 309.249L531.533 300.768" stroke="white" stroke-width="2.1"/>
<path d="M504.117 293.423L527.288 316.594" stroke="white" stroke-width="2.1"/>
<path fill-rule="evenodd" clip-rule="evenodd" d="M706.189 165.563C705.605 167.888 704.117 169.983 701.877 171.276C700.768 171.917 699.581 172.299 698.385 172.442C700.703 173.028 702.79 174.514 704.079 176.748C704.719 177.856 705.102 179.043 705.245 180.238C705.832 177.923 707.318 175.839 709.549 174.551C710.66 173.909 711.849 173.527 713.047 173.384C710.731 172.797 708.646 171.312 707.357 169.08C706.712 167.963 706.329 166.767 706.189 165.563Z" fill="url(#paint22_linear_0_1)"/>
<path fill-rule="evenodd" clip-rule="evenodd" d="M833.406 135.207L831.443 137.171L830.461 138.153L829.4 137.092L830.382 136.11L832.346 134.147L833.406 135.207ZM828.497 140.117L827.515 141.098L825.552 143.062L824.491 142.001L826.455 140.038L827.436 139.056L828.497 140.117ZM824.486 135.207L826.45 137.171L827.432 138.153L828.492 137.092L827.511 136.11L825.547 134.147L824.486 135.207ZM829.395 140.117L830.377 141.098L832.341 143.062L833.401 142.001L831.438 140.038L830.456 139.056L829.395 140.117Z" fill="white"/>
<g filter="url(#filter3_f_0_1)">
<path d="M705.842 228.202L721.273 254.93H690.411L705.842 228.202Z" fill="white"/>
</g>
<path d="M705.842 228.202L721.273 254.93H690.411L705.842 228.202Z" fill="url(#paint23_linear_0_1)"/>
<g filter="url(#filter4_f_0_1)">
<circle cx="705.843" cy="223.672" r="5.13418" fill="#F3F4FE"/>
</g>
<circle cx="705.843" cy="223.672" r="5.13418" fill="#F3F4FE"/>
<path d="M703.728 195.585L694.668 204.645" stroke="white" stroke-width="2"/>
<path d="M686.211 195.585L695.271 204.645" stroke="white" stroke-width="2"/>
<path d="M710.676 195.585L701.615 204.645" stroke="white" stroke-width="2"/>
<path d="M717.316 195.585L708.256 204.645" stroke="white" stroke-width="2"/>
<circle cx="798.962" cy="325.887" r="3.90904" fill="#F3F4FE"/>
<path d="M382.154 437V397.24H389.434V414.992L405.954 397.24H414.802L396.098 417.064C397.666 417.885 399.01 419.192 400.13 420.984L404.61 427.928C405.394 429.123 406.16 429.944 406.906 430.392C407.653 430.84 408.586 431.064 409.706 431.064C411.05 431.064 412.226 430.728 413.234 430.056L414.914 435.712C414.205 436.272 413.29 436.701 412.17 437C411.088 437.336 409.949 437.504 408.754 437.504C404.536 437.504 401.25 435.656 398.898 431.96L393.13 423.112C392.608 422.328 392.066 421.731 391.506 421.32C390.984 420.872 390.293 420.555 389.434 420.368V437H382.154ZM429.929 437.504C426.868 437.504 424.217 436.944 421.977 435.824C419.774 434.667 418.076 433.024 416.881 430.896C415.686 428.768 415.089 426.229 415.089 423.28C415.089 420.331 415.705 417.736 416.937 415.496C418.169 413.219 419.83 411.445 421.921 410.176C424.049 408.907 426.457 408.272 429.145 408.272C433.513 408.272 436.724 409.765 438.777 412.752C440.868 415.701 441.596 419.789 440.961 425.016H422.033C422.182 426.995 422.985 428.581 424.441 429.776C425.897 430.971 427.894 431.568 430.433 431.568C431.628 431.568 432.822 431.307 434.017 430.784C435.249 430.261 436.294 429.459 437.153 428.376L441.129 432.408C439.86 434.013 438.31 435.264 436.481 436.16C434.689 437.056 432.505 437.504 429.929 437.504ZM429.257 413.424C427.353 413.424 425.785 414.021 424.553 415.216C423.321 416.411 422.537 418.016 422.201 420.032H435.081C435.156 417.717 434.652 416.037 433.569 414.992C432.486 413.947 431.049 413.424 429.257 413.424ZM435.081 397.24L441.745 387.328L448.801 389.12L441.185 397.24H435.081ZM418.841 404.912L426.177 395.56H431.889L439.225 404.912H432.785L429.033 399.872L425.281 404.912H418.841ZM458.55 437.504C455.152 437.504 452.502 436.571 450.598 434.704C448.731 432.837 447.816 430.392 447.854 427.368L448.078 414.432H443.262V408.72H448.19L448.246 402.896H455.078L454.966 408.72H464.206V414.432H454.91L454.742 426.64C454.704 428.171 455.078 429.384 455.862 430.28C456.683 431.139 457.896 431.568 459.502 431.568C460.36 431.568 461.163 431.456 461.91 431.232C462.656 431.008 463.44 430.597 464.262 430L466.278 435.264C465.419 436.011 464.318 436.571 462.974 436.944C461.63 437.317 460.155 437.504 458.55 437.504ZM518.494 440.584C518.158 443.272 517.094 445.288 515.302 446.632C513.51 448.013 511.27 448.704 508.582 448.704C504.961 448.704 502.124 447.696 500.07 445.68C498.017 443.664 496.99 440.845 496.99 437.224C492.212 436.515 488.478 434.48 485.79 431.12C483.102 427.76 481.758 423.336 481.758 417.848C481.758 413.704 482.58 410.045 484.222 406.872C485.865 403.661 488.18 401.16 491.166 399.368C494.19 397.576 497.756 396.68 501.862 396.68C505.521 396.68 508.732 397.501 511.494 399.144C514.257 400.787 516.404 403.083 517.934 406.032C519.465 408.944 520.23 412.379 520.23 416.336C520.23 420.219 519.54 423.653 518.158 426.64C516.814 429.589 514.929 431.979 512.502 433.808C510.076 435.637 507.276 436.795 504.102 437.28V437.392C504.102 439.333 504.476 440.733 505.222 441.592C505.969 442.488 507.108 442.936 508.638 442.936C509.721 442.936 510.617 442.656 511.326 442.096C512.036 441.573 512.465 440.827 512.614 439.856L518.494 440.584ZM500.798 430.952C503.15 430.952 505.222 430.373 507.014 429.216C508.844 428.059 510.262 426.397 511.27 424.232C512.316 422.067 512.838 419.435 512.838 416.336C512.838 412.341 511.83 409.149 509.814 406.76C507.798 404.371 505.092 403.176 501.694 403.176C499.268 403.176 497.102 403.792 495.198 405.024C493.332 406.256 491.857 407.955 490.774 410.12C489.692 412.285 489.15 414.824 489.15 417.736C489.15 421.955 490.177 425.221 492.23 427.536C494.321 429.813 497.177 430.952 500.798 430.952ZM535.426 437.504C532.29 437.504 529.919 436.44 528.314 434.312C526.746 432.184 525.98 429.235 526.018 425.464L526.13 408.72H532.962L532.85 424.848C532.812 426.789 533.148 428.32 533.858 429.44C534.567 430.56 535.687 431.12 537.218 431.12C538.412 431.12 539.514 430.765 540.522 430.056C541.567 429.347 542.463 428.152 543.21 426.472C543.956 424.755 544.535 422.459 544.946 419.584C545.394 416.672 545.618 413.051 545.618 408.72H552.226V437H545.338L545.73 430.56C544.61 432.837 543.154 434.573 541.362 435.768C539.607 436.925 537.628 437.504 535.426 437.504ZM585.927 408.832V437H578.983L579.207 432.072C578.199 433.789 576.874 435.133 575.231 436.104C573.626 437.037 571.778 437.504 569.687 437.504C567.223 437.504 565.133 436.944 563.415 435.824C561.698 434.667 560.391 433.08 559.495 431.064C558.599 429.048 558.151 426.733 558.151 424.12C558.151 420.984 558.767 418.24 559.999 415.888C561.231 413.499 562.911 411.632 565.039 410.288C567.205 408.944 569.631 408.272 572.319 408.272C574.111 408.272 575.698 408.664 577.079 409.448C578.461 410.195 579.525 411.203 580.271 412.472L580.943 408.832H585.927ZM572.823 414.32C570.509 414.32 568.661 415.197 567.279 416.952C565.898 418.707 565.207 421.003 565.207 423.84C565.207 426.267 565.73 428.152 566.775 429.496C567.821 430.84 569.258 431.512 571.087 431.512C572.581 431.512 573.925 431.083 575.119 430.224C576.351 429.365 577.322 428.171 578.031 426.64C578.741 425.109 579.095 423.355 579.095 421.376C579.095 419.173 578.535 417.456 577.415 416.224C576.295 414.955 574.765 414.32 572.823 414.32ZM574.223 394.944C575.941 394.944 577.378 395.299 578.535 396.008C579.693 396.68 580.271 397.632 580.271 398.864C580.271 399.872 580.029 400.637 579.543 401.16C579.058 401.683 578.498 402.112 577.863 402.448C577.266 402.747 576.725 403.083 576.239 403.456C575.754 403.792 575.511 404.277 575.511 404.912H571.703V404.072C571.703 403.288 571.853 402.672 572.151 402.224C572.487 401.739 572.861 401.347 573.271 401.048C573.719 400.749 574.111 400.488 574.447 400.264C574.783 400.003 574.951 399.704 574.951 399.368C574.951 398.771 574.466 398.472 573.495 398.472C572.002 398.472 570.733 399.181 569.687 400.6L567.055 398.304C568.773 396.064 571.162 394.944 574.223 394.944ZM614.36 437H607.248V397.24H621.248C626.4 397.24 630.339 398.285 633.064 400.376C635.789 402.467 637.152 405.491 637.152 409.448C637.152 413.443 635.677 416.579 632.728 418.856C629.779 421.096 625.485 422.216 619.848 422.216H614.36V437ZM620.968 403.176H614.36V416.224H620.24C623.6 416.224 626.045 415.683 627.576 414.6C629.107 413.517 629.872 411.837 629.872 409.56C629.872 407.283 629.144 405.659 627.688 404.688C626.269 403.68 624.029 403.176 620.968 403.176ZM641.745 437V395.56H648.577L648.633 408.72L648.241 415.776C649.361 413.387 650.836 411.539 652.665 410.232C654.532 408.925 656.66 408.272 659.049 408.272C662.223 408.272 664.612 409.373 666.217 411.576C667.86 413.741 668.663 416.859 668.625 420.928L668.513 437H661.681L661.793 421.488C661.831 419.285 661.476 417.605 660.729 416.448C660.02 415.253 658.863 414.656 657.257 414.656C656.025 414.656 654.887 415.011 653.841 415.72C652.796 416.429 651.881 417.643 651.097 419.36C650.313 421.04 649.697 423.336 649.249 426.248C648.801 429.123 648.559 432.707 648.521 437H641.745ZM701.92 408.832V437H694.976L695.2 432.072C694.192 433.789 692.866 435.133 691.224 436.104C689.618 437.037 687.77 437.504 685.68 437.504C683.216 437.504 681.125 436.944 679.408 435.824C677.69 434.667 676.384 433.08 675.488 431.064C674.592 429.048 674.144 426.733 674.144 424.12C674.144 420.984 674.76 418.24 675.992 415.888C677.224 413.499 678.904 411.632 681.032 410.288C683.197 408.944 685.624 408.272 688.312 408.272C690.104 408.272 691.69 408.664 693.072 409.448C694.453 410.195 695.517 411.203 696.264 412.472L696.936 408.832H701.92ZM688.816 414.32C686.501 414.32 684.653 415.197 683.272 416.952C681.89 418.707 681.2 421.003 681.2 423.84C681.2 426.267 681.722 428.152 682.768 429.496C683.813 430.84 685.25 431.512 687.08 431.512C688.573 431.512 689.917 431.083 691.112 430.224C692.344 429.365 693.314 428.171 694.024 426.64C694.733 425.109 695.088 423.355 695.088 421.376C695.088 419.173 694.528 417.456 693.408 416.224C692.288 414.955 690.757 414.32 688.816 414.32ZM699.792 404.912H693.352L689.6 399.872L685.848 404.912H679.408L686.744 395.56H692.456L699.792 404.912ZM709.175 437V408.72H716.007L715.671 415.832C716.754 413.405 718.228 411.539 720.095 410.232C721.962 408.925 724.09 408.272 726.479 408.272C729.652 408.272 732.042 409.373 733.647 411.576C735.29 413.741 736.092 416.859 736.055 420.928L735.943 437H729.111L729.223 421.488C729.26 419.285 728.906 417.605 728.159 416.448C727.45 415.253 726.292 414.656 724.687 414.656C723.455 414.656 722.316 415.011 721.271 415.72C720.226 416.429 719.311 417.643 718.527 419.36C717.743 421.04 717.127 423.336 716.679 426.248C716.231 429.123 715.988 432.707 715.951 437H709.175ZM785.823 397.24L784.927 403.624H772.607V437H765.327V403.624H752.559V397.24H785.823ZM792.187 408.72V437H785.355V408.72H792.187ZM785.635 404.912L792.299 395L799.355 396.792L791.739 404.912H785.635ZM812.064 437.504C807.771 437.504 804.374 436.272 801.872 433.808C799.371 431.307 798.12 427.835 798.12 423.392C798.12 420.405 798.736 417.773 799.968 415.496C801.2 413.219 802.918 411.445 805.12 410.176C807.323 408.907 809.862 408.272 812.736 408.272C815.126 408.272 817.216 408.739 819.008 409.672C820.8 410.605 822.256 412.061 823.376 414.04L818.504 417.736C817.795 416.541 816.974 415.683 816.04 415.16C815.144 414.637 814.043 414.376 812.736 414.376C810.534 414.376 808.723 415.197 807.304 416.84C805.923 418.483 805.232 420.648 805.232 423.336C805.232 425.949 805.848 427.965 807.08 429.384C808.35 430.765 810.16 431.456 812.512 431.456C813.744 431.456 814.883 431.176 815.928 430.616C817.011 430.056 817.907 429.179 818.616 427.984L823.376 431.792C822.107 433.845 820.502 435.32 818.56 436.216C816.619 437.075 814.454 437.504 812.064 437.504ZM827.081 437V395.56H833.913L833.969 408.72L833.577 415.776C834.697 413.387 836.172 411.539 838.001 410.232C839.868 408.925 841.996 408.272 844.385 408.272C847.559 408.272 849.948 409.373 851.553 411.576C853.196 413.741 853.999 416.859 853.961 420.928L853.849 437H847.017L847.129 421.488C847.167 419.285 846.812 417.605 846.065 416.448C845.356 415.253 844.199 414.656 842.593 414.656C841.361 414.656 840.223 415.011 839.177 415.72C838.132 416.429 837.217 417.643 836.433 419.36C835.649 421.04 835.033 423.336 834.585 426.248C834.137 429.123 833.895 432.707 833.857 437H827.081ZM874.889 437V397.24H888.105C893.145 397.24 897.009 398.173 899.697 400.04C902.422 401.869 903.785 404.557 903.785 408.104C903.785 410.008 903.318 411.725 902.385 413.256C901.451 414.787 900.126 415.981 898.409 416.84C900.238 417.549 901.694 418.688 902.777 420.256C903.859 421.787 904.401 423.579 904.401 425.632C904.401 429.104 903.113 431.867 900.537 433.92C897.961 435.973 894.433 437 889.953 437H874.889ZM888.217 403.176H882.001V413.984H888.105C890.942 413.984 893.051 413.555 894.433 412.696C895.814 411.8 896.505 410.381 896.505 408.44C896.505 406.648 895.833 405.323 894.489 404.464C893.182 403.605 891.091 403.176 888.217 403.176ZM882.001 431.064H889.785C892.062 431.064 893.854 430.616 895.161 429.72C896.505 428.824 897.177 427.405 897.177 425.464C897.177 421.843 894.657 420.032 889.617 420.032H882.001V431.064ZM936.31 408.832V437H929.366L929.59 432.072C928.582 433.789 927.257 435.133 925.614 436.104C924.009 437.037 922.161 437.504 920.07 437.504C917.606 437.504 915.516 436.944 913.798 435.824C912.081 434.667 910.774 433.08 909.878 431.064C908.982 429.048 908.534 426.733 908.534 424.12C908.534 420.984 909.15 418.24 910.382 415.888C911.614 413.499 913.294 411.632 915.422 410.288C917.588 408.944 920.014 408.272 922.702 408.272C924.494 408.272 926.081 408.664 927.462 409.448C928.844 410.195 929.908 411.203 930.654 412.472L931.326 408.832H936.31ZM923.206 414.32C920.892 414.32 919.044 415.197 917.662 416.952C916.281 418.707 915.59 421.003 915.59 423.84C915.59 426.267 916.113 428.152 917.158 429.496C918.204 430.84 919.641 431.512 921.47 431.512C922.964 431.512 924.308 431.083 925.502 430.224C926.734 429.365 927.705 428.171 928.414 426.64C929.124 425.109 929.478 423.355 929.478 421.376C929.478 419.173 928.918 417.456 927.798 416.224C926.678 414.955 925.148 414.32 923.206 414.32ZM924.606 394.944C926.324 394.944 927.761 395.299 928.918 396.008C930.076 396.68 930.654 397.632 930.654 398.864C930.654 399.872 930.412 400.637 929.926 401.16C929.441 401.683 928.881 402.112 928.246 402.448C927.649 402.747 927.108 403.083 926.622 403.456C926.137 403.792 925.894 404.277 925.894 404.912H922.086V404.072C922.086 403.288 922.236 402.672 922.534 402.224C922.87 401.739 923.244 401.347 923.654 401.048C924.102 400.749 924.494 400.488 924.83 400.264C925.166 400.003 925.334 399.704 925.334 399.368C925.334 398.771 924.849 398.472 923.878 398.472C922.385 398.472 921.116 399.181 920.07 400.6L917.438 398.304C919.156 396.064 921.545 394.944 924.606 394.944ZM943.566 437V408.72H950.398L950.062 415.832C951.144 413.405 952.619 411.539 954.486 410.232C956.352 408.925 958.48 408.272 960.87 408.272C964.043 408.272 966.432 409.373 968.038 411.576C969.68 413.741 970.483 416.859 970.446 420.928L970.334 437H963.502L963.614 421.488C963.651 419.285 963.296 417.605 962.55 416.448C961.84 415.253 960.683 414.656 959.078 414.656C957.846 414.656 956.707 415.011 955.662 415.72C954.616 416.429 953.702 417.643 952.918 419.36C952.134 421.04 951.518 423.336 951.07 426.248C950.622 429.123 950.379 432.707 950.342 437H943.566ZM991.373 437V397.24H1003.19C1010.92 397.24 1016.76 398.901 1020.72 402.224C1024.67 405.547 1026.65 410.456 1026.65 416.952C1026.65 420.984 1025.78 424.512 1024.02 427.536C1022.27 430.523 1019.78 432.856 1016.57 434.536C1013.36 436.179 1009.59 437 1005.26 437H991.373ZM998.653 430.56H1004.98C1009.65 430.56 1013.19 429.44 1015.62 427.2C1018.05 424.923 1019.26 421.6 1019.26 417.232C1019.26 412.677 1018.01 409.28 1015.51 407.04C1013.05 404.8 1009.26 403.68 1004.14 403.68H998.653V430.56ZM987.901 419.416V414.264H1009.01V419.416H987.901ZM1046.09 408.272C1050.31 408.272 1053.61 409.541 1056 412.08C1058.43 414.581 1059.64 417.979 1059.64 422.272C1059.64 425.184 1059.02 427.797 1057.79 430.112C1056.6 432.389 1054.9 434.2 1052.7 435.544C1050.49 436.851 1047.94 437.504 1045.02 437.504C1040.81 437.504 1037.48 436.253 1035.06 433.752C1032.67 431.251 1031.47 427.835 1031.47 423.504C1031.47 420.592 1032.07 417.997 1033.26 415.72C1034.5 413.405 1036.19 411.595 1038.36 410.288C1040.56 408.944 1043.14 408.272 1046.09 408.272ZM1045.25 431.512C1047.45 431.512 1049.22 430.672 1050.57 428.992C1051.91 427.312 1052.58 425.072 1052.58 422.272C1052.58 419.733 1051.99 417.773 1050.79 416.392C1049.63 415.011 1048.03 414.32 1045.98 414.32C1043.7 414.32 1041.89 415.16 1040.54 416.84C1039.2 418.52 1038.53 420.741 1038.53 423.504C1038.53 426.043 1039.11 428.021 1040.26 429.44C1041.46 430.821 1043.12 431.512 1045.25 431.512ZM1033.43 397.24L1025.82 389.12L1032.87 387.328L1039.54 397.24H1033.43ZM1035.39 404.912L1042.73 395.56H1048.44L1055.78 404.912H1049.34L1045.58 399.872L1041.83 404.912H1035.39ZM470.678 461.24H477.678V501H471.293L451.526 473.28V501H444.526V461.24H450.91L470.678 488.96V461.24ZM511.853 472.832V501H504.909L505.133 496.072C504.125 497.789 502.8 499.133 501.157 500.104C499.552 501.037 497.704 501.504 495.613 501.504C493.149 501.504 491.059 500.944 489.341 499.824C487.624 498.667 486.317 497.08 485.421 495.064C484.525 493.048 484.077 490.733 484.077 488.12C484.077 484.984 484.693 482.24 485.925 479.888C487.157 477.499 488.837 475.632 490.965 474.288C493.131 472.944 495.557 472.272 498.245 472.272C500.037 472.272 501.624 472.664 503.005 473.448C504.387 474.195 505.451 475.203 506.197 476.472L506.869 472.832H511.853ZM498.749 478.32C496.435 478.32 494.587 479.197 493.205 480.952C491.824 482.707 491.133 485.003 491.133 487.84C491.133 490.267 491.656 492.152 492.701 493.496C493.747 494.84 495.184 495.512 497.013 495.512C498.507 495.512 499.851 495.083 501.045 494.224C502.277 493.365 503.248 492.171 503.957 490.64C504.667 489.109 505.021 487.355 505.021 485.376C505.021 483.173 504.461 481.456 503.341 480.224C502.221 478.955 500.691 478.32 498.749 478.32ZM504.685 458.944L509.221 459.56C508.997 462.509 508.008 464.861 506.253 466.616C504.536 468.333 502.296 469.192 499.533 469.192C496.771 469.192 494.512 468.333 492.757 466.616C491.04 464.861 490.069 462.509 489.845 459.56L494.381 458.944C494.904 462.677 496.621 464.544 499.533 464.544C502.445 464.544 504.163 462.677 504.685 458.944ZM519.109 501V472.72H525.941L525.605 479.832C526.687 477.405 528.162 475.539 530.029 474.232C531.895 472.925 534.023 472.272 536.413 472.272C539.586 472.272 541.975 473.373 543.581 475.576C545.223 477.741 546.026 480.859 545.989 484.928L545.877 501H539.045L539.157 485.488C539.194 483.285 538.839 481.605 538.093 480.448C537.383 479.253 536.226 478.656 534.621 478.656C533.389 478.656 532.25 479.011 531.205 479.72C530.159 480.429 529.245 481.643 528.461 483.36C527.677 485.04 527.061 487.336 526.613 490.248C526.165 493.123 525.922 496.707 525.885 501H519.109ZM563.043 512.76C561.4 512.76 559.627 512.592 557.723 512.256C555.856 511.92 554.307 511.36 553.075 510.576L554.755 504.64C555.987 505.275 557.312 505.779 558.731 506.152C560.187 506.525 561.736 506.712 563.379 506.712C566.702 506.712 569.054 505.928 570.435 504.36C571.816 502.792 572.582 500.328 572.731 496.968L572.843 495.232C571.798 496.987 570.472 498.331 568.867 499.264C567.299 500.16 565.451 500.608 563.323 500.608C560.784 500.608 558.619 500.067 556.827 498.984C555.072 497.901 553.747 496.389 552.851 494.448C551.955 492.507 551.507 490.285 551.507 487.784C551.507 484.76 552.104 482.091 553.299 479.776C554.531 477.424 556.211 475.595 558.339 474.288C560.504 472.944 562.987 472.272 565.787 472.272C567.654 472.272 569.278 472.664 570.659 473.448C572.04 474.195 573.104 475.203 573.851 476.472L574.523 472.832H579.507V496.128C579.507 501.691 578.051 505.853 575.139 508.616C572.227 511.379 568.195 512.76 563.043 512.76ZM566.291 478.32C563.939 478.32 562.054 479.16 560.635 480.84C559.254 482.52 558.563 484.685 558.563 487.336C558.563 489.651 559.104 491.443 560.187 492.712C561.27 493.981 562.744 494.616 564.611 494.616C566.142 494.616 567.504 494.205 568.699 493.384C569.931 492.525 570.902 491.368 571.611 489.912C572.32 488.456 572.675 486.813 572.675 484.984C572.675 482.893 572.096 481.269 570.939 480.112C569.782 478.917 568.232 478.32 566.291 478.32ZM600.877 501V461.24H608.157V494.616H625.853L625.349 501H600.877ZM660.673 467.064C660.785 469.491 660.3 471.581 659.217 473.336C658.172 475.091 656.679 476.323 654.737 477.032V501H647.849L648.241 494.56C647.121 496.837 645.665 498.573 643.873 499.768C642.081 500.925 640.103 501.504 637.937 501.504C634.801 501.504 632.431 500.44 630.825 498.312C629.257 496.184 628.492 493.235 628.529 489.464L628.641 472.72H635.473L635.361 488.848C635.324 490.789 635.66 492.32 636.369 493.44C637.079 494.56 638.199 495.12 639.729 495.12C640.924 495.12 642.025 494.765 643.033 494.056C644.079 493.347 644.975 492.152 645.721 490.472C646.468 488.755 647.047 486.459 647.457 483.584C647.905 480.672 648.129 477.051 648.129 472.72H650.369C652.012 472.72 653.151 472.309 653.785 471.488C654.42 470.667 654.756 469.043 654.793 466.616L660.673 467.064ZM675.279 472.272C679.498 472.272 682.802 473.541 685.191 476.08C687.618 478.581 688.831 481.979 688.831 486.272C688.831 489.184 688.215 491.797 686.983 494.112C685.789 496.389 684.09 498.2 681.887 499.544C679.685 500.851 677.127 501.504 674.215 501.504C669.997 501.504 666.674 500.253 664.247 497.752C661.858 495.251 660.663 491.835 660.663 487.504C660.663 484.592 661.261 481.997 662.455 479.72C663.687 477.405 665.386 475.595 667.551 474.288C669.754 472.944 672.33 472.272 675.279 472.272ZM674.439 495.512C676.642 495.512 678.415 494.672 679.759 492.992C681.103 491.312 681.775 489.072 681.775 486.272C681.775 483.733 681.178 481.773 679.983 480.392C678.826 479.011 677.221 478.32 675.167 478.32C672.89 478.32 671.079 479.16 669.735 480.84C668.391 482.52 667.719 484.741 667.719 487.504C667.719 490.043 668.298 492.021 669.455 493.44C670.65 494.821 672.311 495.512 674.439 495.512ZM681.047 472.776C682.69 472.776 683.829 472.365 684.463 471.544C685.135 470.685 685.49 469.043 685.527 466.616L691.407 467.064C691.482 469.192 691.127 471.059 690.343 472.664C689.559 474.232 688.421 475.483 686.927 476.416C685.434 477.312 683.679 477.76 681.663 477.76H678.975L677.519 472.44C678.005 472.477 678.546 472.552 679.143 472.664C679.741 472.739 680.375 472.776 681.047 472.776ZM674.775 513.264C673.394 513.264 672.311 512.853 671.527 512.032C670.743 511.211 670.351 510.221 670.351 509.064C670.351 507.907 670.743 506.917 671.527 506.096C672.311 505.275 673.394 504.864 674.775 504.864C676.119 504.864 677.183 505.275 677.967 506.096C678.751 506.917 679.143 507.907 679.143 509.064C679.143 510.221 678.751 511.211 677.967 512.032C677.183 512.853 676.119 513.264 674.775 513.264ZM694.765 501V472.72H701.597L701.261 479.832C702.344 477.405 703.818 475.539 705.685 474.232C707.552 472.925 709.68 472.272 712.069 472.272C715.242 472.272 717.632 473.373 719.237 475.576C720.88 477.741 721.682 480.859 721.645 484.928L721.533 501H714.701L714.813 485.488C714.85 483.285 714.496 481.605 713.749 480.448C713.04 479.253 711.882 478.656 710.277 478.656C709.045 478.656 707.906 479.011 706.861 479.72C705.816 480.429 704.901 481.643 704.117 483.36C703.333 485.04 702.717 487.336 702.269 490.248C701.821 493.123 701.578 496.707 701.541 501H694.765ZM738.699 512.76C737.057 512.76 735.283 512.592 733.379 512.256C731.513 511.92 729.963 511.36 728.731 510.576L730.411 504.64C731.643 505.275 732.969 505.779 734.387 506.152C735.843 506.525 737.393 506.712 739.035 506.712C742.358 506.712 744.71 505.928 746.091 504.36C747.473 502.792 748.238 500.328 748.387 496.968L748.499 495.232C747.454 496.987 746.129 498.331 744.523 499.264C742.955 500.16 741.107 500.608 738.979 500.608C736.441 500.608 734.275 500.067 732.483 498.984C730.729 497.901 729.403 496.389 728.507 494.448C727.611 492.507 727.163 490.285 727.163 487.784C727.163 484.76 727.761 482.091 728.955 479.776C730.187 477.424 731.867 475.595 733.995 474.288C736.161 472.944 738.643 472.272 741.443 472.272C743.31 472.272 744.934 472.664 746.315 473.448C747.697 474.195 748.761 475.203 749.507 476.472L750.179 472.832H755.163V496.128C755.163 501.691 753.707 505.853 750.795 508.616C747.883 511.379 743.851 512.76 738.699 512.76ZM741.947 478.32C739.595 478.32 737.71 479.16 736.291 480.84C734.91 482.52 734.219 484.685 734.219 487.336C734.219 489.651 734.761 491.443 735.843 492.712C736.926 493.981 738.401 494.616 740.267 494.616C741.798 494.616 743.161 494.205 744.355 493.384C745.587 492.525 746.558 491.368 747.267 489.912C747.977 488.456 748.331 486.813 748.331 484.984C748.331 482.893 747.753 481.269 746.595 480.112C745.438 478.917 743.889 478.32 741.947 478.32ZM810.245 493.272C808.677 495.923 806.512 497.957 803.749 499.376C800.987 500.795 797.888 501.504 794.453 501.504C790.384 501.504 786.893 500.72 783.981 499.152C781.069 497.584 778.829 495.344 777.261 492.432C775.731 489.483 774.965 485.973 774.965 481.904C774.965 477.685 775.824 473.989 777.541 470.816C779.259 467.643 781.648 465.16 784.709 463.368C787.771 461.576 791.317 460.68 795.349 460.68C798.784 460.68 801.715 461.333 804.141 462.64C806.605 463.947 808.659 465.925 810.301 468.576L804.701 472.608C803.693 470.741 802.368 469.379 800.725 468.52C799.083 467.661 797.272 467.232 795.293 467.232C792.755 467.232 790.515 467.848 788.573 469.08C786.632 470.312 785.101 472.029 783.981 474.232C782.899 476.397 782.357 478.917 782.357 481.792C782.357 485.936 783.421 489.165 785.549 491.48C787.715 493.795 790.72 494.952 794.565 494.952C796.693 494.952 798.653 494.467 800.445 493.496C802.237 492.525 803.693 491.051 804.813 489.072L810.245 493.272ZM839.814 472.832V501H832.87L833.094 496.072C832.086 497.789 830.761 499.133 829.118 500.104C827.513 501.037 825.665 501.504 823.574 501.504C821.11 501.504 819.02 500.944 817.302 499.824C815.585 498.667 814.278 497.08 813.382 495.064C812.486 493.048 812.038 490.733 812.038 488.12C812.038 484.984 812.654 482.24 813.886 479.888C815.118 477.499 816.798 475.632 818.926 474.288C821.092 472.944 823.518 472.272 826.206 472.272C827.998 472.272 829.585 472.664 830.966 473.448C832.348 474.195 833.412 475.203 834.158 476.472L834.83 472.832H839.814ZM826.71 478.32C824.396 478.32 822.548 479.197 821.166 480.952C819.785 482.707 819.094 485.003 819.094 487.84C819.094 490.267 819.617 492.152 820.662 493.496C821.708 494.84 823.145 495.512 824.974 495.512C826.468 495.512 827.812 495.083 829.006 494.224C830.238 493.365 831.209 492.171 831.918 490.64C832.628 489.109 832.982 487.355 832.982 485.376C832.982 483.173 832.422 481.456 831.302 480.224C830.182 478.955 828.652 478.32 826.71 478.32ZM824.358 468.912L831.022 459L838.078 460.792L830.462 468.912H824.358ZM887.287 461.24H894.287V501H887.903L868.135 473.28V501H861.135V461.24H867.519L887.287 488.96V461.24ZM902.031 501V459.56H908.863L908.919 472.72L908.527 479.776C909.647 477.387 911.121 475.539 912.951 474.232C914.817 472.925 916.945 472.272 919.335 472.272C922.508 472.272 924.897 473.373 926.503 475.576C928.145 477.741 928.948 480.859 928.911 484.928L928.799 501H921.967L922.079 485.488C922.116 483.285 921.761 481.605 921.015 480.448C920.305 479.253 919.148 478.656 917.543 478.656C916.311 478.656 915.172 479.011 914.127 479.72C913.081 480.429 912.167 481.643 911.383 483.36C910.599 485.04 909.983 487.336 909.535 490.248C909.087 493.123 908.844 496.707 908.807 501H902.031ZM962.205 472.832V501H955.261L955.485 496.072C954.477 497.789 953.151 499.133 951.509 500.104C949.903 501.037 948.055 501.504 945.965 501.504C943.501 501.504 941.41 500.944 939.693 499.824C937.975 498.667 936.669 497.08 935.773 495.064C934.877 493.048 934.429 490.733 934.429 488.12C934.429 484.984 935.045 482.24 936.277 479.888C937.509 477.499 939.189 475.632 941.317 474.288C943.482 472.944 945.909 472.272 948.597 472.272C950.389 472.272 951.975 472.664 953.357 473.448C954.738 474.195 955.802 475.203 956.549 476.472L957.221 472.832H962.205ZM949.101 478.32C946.786 478.32 944.938 479.197 943.557 480.952C942.175 482.707 941.485 485.003 941.485 487.84C941.485 490.267 942.007 492.152 943.053 493.496C944.098 494.84 945.535 495.512 947.365 495.512C948.858 495.512 950.202 495.083 951.397 494.224C952.629 493.365 953.599 492.171 954.309 490.64C955.018 489.109 955.373 487.355 955.373 485.376C955.373 483.173 954.813 481.456 953.693 480.224C952.573 478.955 951.042 478.32 949.101 478.32ZM960.077 468.912H953.637L949.885 463.872L946.133 468.912H939.693L947.029 459.56H952.741L960.077 468.912ZM969.46 501V472.72H976.292L975.956 479.832C977.039 477.405 978.514 475.539 980.38 474.232C982.247 472.925 984.375 472.272 986.764 472.272C989.938 472.272 992.327 473.373 993.932 475.576C995.575 477.741 996.378 480.859 996.34 484.928L996.228 501H989.396L989.508 485.488C989.546 483.285 989.191 481.605 988.444 480.448C987.735 479.253 986.578 478.656 984.972 478.656C983.74 478.656 982.602 479.011 981.556 479.72C980.511 480.429 979.596 481.643 978.812 483.36C978.028 485.04 977.412 487.336 976.964 490.248C976.516 493.123 976.274 496.707 976.236 501H969.46Z" fill="white"/>
<defs>
<filter id="filter0_d_0_1" x="-185.2" y="-297.175" width="1935.4" height="1235.4" filterUnits="userSpaceOnUse" color-interpolation-filters="sRGB">
<feFlood flood-opacity="0" result="BackgroundImageFix"/>
<feColorMatrix in="SourceAlpha" type="matrix" values="0 0 0 0 0 0 0 0 0 0 0 0 0 0 0 0 0 0 127 0" result="hardAlpha"/>
<feOffset dy="19.025"/>
<feGaussianBlur stdDeviation="76.1"/>
<feComposite in2="hardAlpha" operator="out"/>
<feColorMatrix type="matrix" values="0 0 0 0 0 0 0 0 0 0 0 0 0 0 0 0 0 0 0.07 0"/>
<feBlend mode="normal" in2="BackgroundImageFix" result="effect1_dropShadow_0_1"/>
<feBlend mode="normal" in="SourceGraphic" in2="effect1_dropShadow_0_1" result="shape"/>
</filter>
<filter id="filter1_f_0_1" x="113.787" y="-347" width="1180.55" height="1180.55" filterUnits="userSpaceOnUse" color-interpolation-filters="sRGB">
<feFlood flood-opacity="0" result="BackgroundImageFix"/>
<feBlend mode="normal" in="SourceGraphic" in2="BackgroundImageFix" result="shape"/>
<feGaussianBlur stdDeviation="204" result="effect1_foregroundBlur_0_1"/>
</filter>
<filter id="filter2_d_0_1" x="631.716" y="170.289" width="146.367" height="146.368" filterUnits="userSpaceOnUse" color-interpolation-filters="sRGB">
<feFlood flood-opacity="0" result="BackgroundImageFix"/>
<feColorMatrix in="SourceAlpha" type="matrix" values="0 0 0 0 0 0 0 0 0 0 0 0 0 0 0 0 0 0 127 0" result="hardAlpha"/>
<feOffset dx="0.253526" dy="0.253526"/>
<feGaussianBlur stdDeviation="1.04391"/>
<feComposite in2="hardAlpha" operator="out"/>
<feColorMatrix type="matrix" values="0 0 0 0 0.45375 0 0 0 0 0.565786 0 0 0 0 0.97125 0 0 0 0.5 0"/>
<feBlend mode="normal" in2="BackgroundImageFix" result="effect1_dropShadow_0_1"/>
<feBlend mode="normal" in="SourceGraphic" in2="effect1_dropShadow_0_1" result="shape"/>
</filter>
<filter id="filter3_f_0_1" x="649.61" y="187.402" width="112.463" height="108.328" filterUnits="userSpaceOnUse" color-interpolation-filters="sRGB">
<feFlood flood-opacity="0" result="BackgroundImageFix"/>
<feBlend mode="normal" in="SourceGraphic" in2="BackgroundImageFix" result="shape"/>
<feGaussianBlur stdDeviation="20.4" result="effect1_foregroundBlur_0_1"/>
</filter>
<filter id="filter4_f_0_1" x="695.409" y="213.238" width="20.8676" height="20.8684" filterUnits="userSpaceOnUse" color-interpolation-filters="sRGB">
<feFlood flood-opacity="0" result="BackgroundImageFix"/>
<feBlend mode="normal" in="SourceGraphic" in2="BackgroundImageFix" result="shape"/>
<feGaussianBlur stdDeviation="2.65" result="effect1_foregroundBlur_0_1"/>
</filter>
<linearGradient id="paint0_linear_0_1" x1="1419.68" y1="-248.637" x2="48.8812" y2="758.137" gradientUnits="userSpaceOnUse">
<stop stop-color="#14104D"/>
<stop offset="0.532412" stop-color="#12216D"/>
<stop offset="0.888353" stop-color="#01002B"/>
</linearGradient>
<linearGradient id="paint1_linear_0_1" x1="-61.5306" y1="-164" x2="510.135" y2="155.412" gradientUnits="userSpaceOnUse">
<stop stop-color="#6F90D0"/>
<stop offset="1" stop-color="#14216E" stop-opacity="0"/>
</linearGradient>
<linearGradient id="paint2_linear_0_1" x1="1666.95" y1="749.544" x2="1072.76" y2="560.596" gradientUnits="userSpaceOnUse">
<stop stop-color="#6F90D0"/>
<stop offset="1" stop-color="#14216E" stop-opacity="0"/>
</linearGradient>
<linearGradient id="paint3_linear_0_1" x1="-183.592" y1="700.784" x2="284.738" y2="321.37" gradientUnits="userSpaceOnUse">
<stop stop-color="#25409B"/>
<stop offset="1" stop-color="#121F69" stop-opacity="0"/>
</linearGradient>
<linearGradient id="paint4_linear_0_1" x1="32.4263" y1="816.232" x2="404.879" y2="567.009" gradientUnits="userSpaceOnUse">
<stop stop-color="#2B4DB1"/>
<stop offset="1" stop-color="#13206C" stop-opacity="0"/>
</linearGradient>
<linearGradient id="paint5_linear_0_1" x1="1662.66" y1="-126.983" x2="997.055" y2="372.705" gradientUnits="userSpaceOnUse">
<stop stop-color="#81A0FD"/>
<stop offset="0.997592" stop-color="#17216A" stop-opacity="0"/>
</linearGradient>
<linearGradient id="paint6_linear_0_1" x1="1179.84" y1="-275.771" x2="816.997" y2="124.507" gradientUnits="userSpaceOnUse">
<stop stop-color="#2B4DB0"/>
<stop offset="1" stop-color="#13206B" stop-opacity="0"/>
</linearGradient>
<linearGradient id="paint7_linear_0_1" x1="1174.8" y1="-204.731" x2="1174.8" y2="446.969" gradientUnits="userSpaceOnUse">
<stop stop-color="#707CD7"/>
<stop offset="1" stop-color="#EEF0F4" stop-opacity="0"/>
</linearGradient>
<radialGradient id="paint8_angular_0_1" cx="0" cy="0" r="1" gradientUnits="userSpaceOnUse" gradientTransform="translate(711.764 28.8338) rotate(90) scale(396.716 362.535)">
<stop stop-color="#32314B"/>
<stop offset="0.0729167" stop-color="#585C73"/>
<stop offset="0.947917" stop-color="#414057"/>
<stop offset="1" stop-color="#898799"/>
</radialGradient>
<radialGradient id="paint9_radial_0_1" cx="0" cy="0" r="1" gradientUnits="userSpaceOnUse" gradientTransform="translate(711.764 28.8338) rotate(90) scale(396.716 362.535)">
<stop stop-color="#C894F0"/>
<stop offset="0.0729167" stop-color="#BE9FFF"/>
<stop offset="0.947917" stop-color="#718ADF"/>
<stop offset="1" stop-color="#BBC4F7"/>
</radialGradient>
<linearGradient id="paint10_linear_0_1" x1="704.357" y1="172.686" x2="704.357" y2="321.978" gradientUnits="userSpaceOnUse">
<stop stop-color="white" stop-opacity="0"/>
<stop offset="1" stop-color="#4A70FF"/>
</linearGradient>
<linearGradient id="paint11_linear_0_1" x1="704.357" y1="172.101" x2="704.357" y2="321.393" gradientUnits="userSpaceOnUse">
<stop stop-color="white" stop-opacity="0"/>
<stop offset="1" stop-color="#4A70FF"/>
</linearGradient>
<linearGradient id="paint12_linear_0_1" x1="704.354" y1="99.3275" x2="704.354" y2="432.572" gradientUnits="userSpaceOnUse">
<stop stop-color="#E1DFFF"/>
<stop offset="0.0616219" stop-color="#4EB5FF"/>
<stop offset="0.277761" stop-color="#2D43CC" stop-opacity="0.5"/>
<stop offset="1" stop-color="#13206B" stop-opacity="0"/>
</linearGradient>
<radialGradient id="paint13_radial_0_1" cx="0" cy="0" r="1" gradientUnits="userSpaceOnUse" gradientTransform="translate(701.872 262.35) rotate(57.563) scale(40.6516 446.299)">
<stop stop-color="#172672" stop-opacity="0"/>
<stop offset="1" stop-color="#63B4FF"/>
</radialGradient>
<radialGradient id="paint14_radial_0_1" cx="0" cy="0" r="1" gradientUnits="userSpaceOnUse" gradientTransform="translate(695.334 261.477) rotate(46.2046) scale(50.2135 1206.11)">
<stop stop-color="#172672" stop-opacity="0"/>
<stop offset="0.465" stop-color="#424FB5"/>
<stop offset="1" stop-color="#4A92D6"/>
</radialGradient>
<radialGradient id="paint15_radial_0_1" cx="0" cy="0" r="1" gradientUnits="userSpaceOnUse" gradientTransform="translate(697.835 222.283) rotate(52.6462) scale(61.3739 1612.33)">
<stop stop-color="#5E5EB3"/>
<stop offset="1" stop-color="#4B93D6"/>
</radialGradient>
<linearGradient id="paint16_linear_0_1" x1="704.354" y1="179.976" x2="704.354" y2="313.786" gradientUnits="userSpaceOnUse">
<stop stop-color="white" stop-opacity="0"/>
<stop offset="1" stop-color="#4A70FF"/>
</linearGradient>
<linearGradient id="paint17_linear_0_1" x1="631.515" y1="199.613" x2="637.204" y2="202.224" gradientUnits="userSpaceOnUse">
<stop stop-color="#FFFBE8"/>
<stop offset="0.826287" stop-color="#3D5BCB" stop-opacity="0"/>
</linearGradient>
<linearGradient id="paint18_linear_0_1" x1="549.448" y1="203.317" x2="562.805" y2="207.943" gradientUnits="userSpaceOnUse">
<stop stop-color="#FFFBE8"/>
<stop offset="0.826287" stop-color="#3D5BCB" stop-opacity="0"/>
</linearGradient>
<linearGradient id="paint19_linear_0_1" x1="850.532" y1="329.427" x2="840.443" y2="323.404" gradientUnits="userSpaceOnUse">
<stop stop-color="#FFFBE8"/>
<stop offset="0.826287" stop-color="#3D5BCB" stop-opacity="0"/>
</linearGradient>
<linearGradient id="paint20_linear_0_1" x1="767.905" y1="276.301" x2="763.098" y2="272.409" gradientUnits="userSpaceOnUse">
<stop stop-color="#FFFBE8"/>
<stop offset="0.826287" stop-color="#3D5BCB" stop-opacity="0"/>
</linearGradient>
<linearGradient id="paint21_linear_0_1" x1="659.619" y1="172.123" x2="746.12" y2="310.761" gradientUnits="userSpaceOnUse">
<stop stop-color="#97ACFA"/>
<stop offset="0.405" stop-color="#C0D1FF"/>
<stop offset="0.61" stop-color="#2D9AFF"/>
<stop offset="0.885" stop-color="#6663FF"/>
</linearGradient>
<linearGradient id="paint22_linear_0_1" x1="705.236" y1="170.388" x2="700.769" y2="176.676" gradientUnits="userSpaceOnUse">
<stop stop-color="white"/>
<stop offset="0.479167" stop-color="#98CDFF"/>
<stop offset="1" stop-color="#FCFCFF"/>
</linearGradient>
<linearGradient id="paint23_linear_0_1" x1="698.979" y1="241.384" x2="703.128" y2="265.926" gradientUnits="userSpaceOnUse">
<stop stop-color="white"/>
<stop offset="0.479167" stop-color="#98CDFF"/>
<stop offset="1" stop-color="#FCFCFF"/>
</linearGradient>
<clipPath id="clip0_0_1">
<rect x="-33" y="-164" width="1631" height="931" rx="57.075" fill="white"/>
</clipPath>
</defs>
</svg>
