<svg width="846" height="28" viewBox="0 0 846 28" fill="none" xmlns="http://www.w3.org/2000/svg">
<path fill-rule="evenodd" clip-rule="evenodd" d="M11.2455 1.91394C10.5459 5.22402 8.56561 8.24045 5.48724 10.1671C3.9549 11.1262 2.30182 11.7212 0.62439 11.9786L0.500549 15.9093C3.80835 16.6326 6.83759 18.6383 8.78552 21.7434C9.7558 23.2901 10.3616 24.9552 10.6293 26.6412L14.5612 26.7419C15.2618 23.4339 17.2416 20.4197 20.3183 18.494C21.6428 17.6651 23.0574 17.1081 24.5 16.806V16.8279L845.5 16.8279V12.8279L25.3073 12.8278L25.3098 12.751C22.0009 12.0282 18.9705 10.0222 17.022 6.9163C16.051 5.36837 15.4451 3.70183 15.1776 2.0144L11.2455 1.91394ZM7.60944 13.5578C9.90607 12.1203 11.7364 10.2186 13.0562 8.05014C13.2364 8.38473 13.4288 8.71553 13.6336 9.04198C15.0837 11.3535 16.9968 13.2001 19.1749 14.535C18.8447 14.7124 18.5182 14.9018 18.1961 15.1034C15.9004 16.5403 14.0706 18.4411 12.7509 20.6085C12.5708 20.2743 12.3785 19.9438 12.174 19.6177C10.7239 17.3063 8.81097 15.4597 6.63306 14.1249C6.96246 13.9479 7.28809 13.7589 7.60944 13.5578Z" fill="url(#paint0_linear_895_1650)"/>
<defs>
<linearGradient id="paint0_linear_895_1650" x1="-19.4998" y1="-38.2581" x2="-6.34326" y2="-119.652" gradientUnits="userSpaceOnUse">
<stop stop-color="#1036FF"/>
<stop offset="0.575688" stop-color="#25A3FF"/>
<stop offset="1" stop-color="#FEF8EA"/>
</linearGradient>
</defs>
</svg>
