<svg width="20" height="20" viewBox="0 0 20 20" fill="none" xmlns="http://www.w3.org/2000/svg">
<path d="M17.7566 14.8704H2.24445C1.89945 14.8704 1.61914 15.151 1.61914 15.496V16.3538C1.61914 16.6988 1.89945 16.9791 2.24445 16.9791H17.757C18.102 16.9791 18.3823 16.6985 18.3823 16.3535V15.4957C18.3823 15.1507 18.1016 14.8704 17.7566 14.8704Z" fill="#838383"/>
<path d="M2.6148 8.21812L6.32699 9.88687L4.77855 10.4084C4.60574 10.4666 4.49043 10.6281 4.49168 10.8103C4.49324 10.9928 4.61074 11.1528 4.78449 11.2081L6.4473 11.74L11.147 11.3316L15.9454 12.5941C16.7532 12.7869 17.7114 12.4928 17.7573 11.6987C17.7636 10.7069 16.6536 10.1741 16.3795 10.0575C15.9939 9.70218 15.5636 9.27781 15.0367 9.16093L5.57761 6.58906L4.40074 3.50468C4.32261 3.29843 4.13886 3.1475 3.92136 3.11031L3.44605 3.02937C3.10418 2.96375 2.75293 3.22687 2.7198 3.57312L2.25043 7.57437C2.21855 7.84718 2.3648 8.10562 2.6148 8.21812Z" fill="#838383"/>
</svg>
