<svg width="20" height="20" viewBox="0 0 20 20" fill="none" xmlns="http://www.w3.org/2000/svg">
<path d="M9.95899 12.1165C7.084 12.1165 4.6582 12.5862 4.6582 14.3994C4.6582 16.2132 7.09967 16.6665 9.95899 16.6665C12.834 16.6665 15.2598 16.1967 15.2598 14.3836C15.2598 12.5697 12.8183 12.1165 9.95899 12.1165Z" fill="#838383"/>
<path d="M9.95891 10.3891C11.9057 10.3891 13.4667 8.81914 13.4667 6.86118C13.4667 4.90247 11.9057 3.33325 9.95891 3.33325C8.01216 3.33325 6.45117 4.90247 6.45117 6.86118C6.45117 8.81914 8.01216 10.3891 9.95891 10.3891Z" fill="#838383"/>
<path d="M17.5738 7.68269C18.0775 5.70147 16.6008 3.92212 14.7204 3.92212C14.516 3.92212 14.3205 3.94463 14.1295 3.98291C14.1041 3.98891 14.0758 4.00167 14.0608 4.02418C14.0437 4.0527 14.0564 4.09097 14.075 4.11574C14.6399 4.91273 14.9644 5.88308 14.9644 6.92472C14.9644 7.92284 14.6667 8.85341 14.1444 9.62564C14.0907 9.70519 14.1384 9.81251 14.2332 9.82902C14.3645 9.85228 14.4988 9.86429 14.6361 9.86804C16.0053 9.90406 17.2343 9.01777 17.5738 7.68269Z" fill="#838383"/>
<path d="M19.0078 12.3474C18.7571 11.8101 18.152 11.4416 17.232 11.2607C16.7977 11.1541 15.6225 11.0041 14.5293 11.0243C14.5129 11.0266 14.504 11.0378 14.5025 11.0453C14.5002 11.0558 14.5047 11.0738 14.5263 11.0851C15.0315 11.3365 16.9842 12.4299 16.7387 14.7361C16.7283 14.8359 16.8081 14.9222 16.9074 14.9072C17.3879 14.8382 18.6243 14.571 19.0078 13.7387C19.2198 13.299 19.2198 12.7879 19.0078 12.3474Z" fill="#838383"/>
<path d="M5.87155 3.98315C5.68127 3.94413 5.48503 3.92236 5.28058 3.92236C3.40024 3.92236 1.92357 5.70171 2.42798 7.68294C2.76674 9.01801 3.99568 9.90431 5.3649 9.86829C5.50219 9.86453 5.63725 9.85177 5.76783 9.82926C5.86259 9.81275 5.91035 9.70543 5.85662 9.62589C5.33431 8.85291 5.03658 7.92308 5.03658 6.92497C5.03658 5.88257 5.36191 4.91222 5.92676 4.11598C5.94467 4.09122 5.9581 4.05294 5.9402 4.02443C5.92527 4.00116 5.89766 3.98915 5.87155 3.98315Z" fill="#838383"/>
<path d="M2.76861 11.2606C1.84859 11.4414 1.24419 11.8099 0.993478 12.3473C0.78082 12.7878 0.78082 13.2988 0.993478 13.7394C1.37701 14.5709 2.61341 14.8388 3.09394 14.9071C3.19318 14.9221 3.27228 14.8365 3.26183 14.736C3.01634 12.4306 4.96907 11.3371 5.47497 11.0857C5.49586 11.0737 5.50034 11.0565 5.4981 11.0452C5.49661 11.0377 5.4884 11.0264 5.47198 11.0249C4.3781 11.0039 3.20363 11.154 2.76861 11.2606Z" fill="#838383"/>
</svg>
