<svg width="70" height="70" viewBox="0 0 70 70" fill="none" xmlns="http://www.w3.org/2000/svg">
<g filter="url(#filter0_d_937_2479)">
<rect x="11" y="5" width="48" height="48" rx="24" fill="white" shape-rendering="crispEdges"/>
<path d="M36.3205 21.0148V21H40.7298C41.3656 21 41.8819 21.5163 41.8819 22.1491C41.8819 22.7997 41.3656 23.316 40.7298 23.316H36.3205C35.6848 23.316 35.1699 22.7997 35.1699 22.1654C35.1699 21.5311 35.6848 21.0148 36.3205 21.0148Z" fill="#200E32"/>
<path d="M40.7315 29.6187H29.1662C28.5305 29.6187 28.0156 29.1024 28.0156 28.4681C28.0156 27.8338 28.5305 27.316 29.1662 27.316H40.7315C41.3658 27.316 41.8821 27.8338 41.8821 28.4681C41.8821 29.1024 41.3658 29.6187 40.7315 29.6187Z" fill="#200E32"/>
<path d="M40.8486 35.9406H29.2834C28.8408 35.9996 28.413 35.7783 28.177 35.4096C27.941 35.026 27.941 34.5392 28.177 34.1704C28.413 33.7869 28.8408 33.5804 29.2834 33.6246H40.8486C41.4372 33.6836 41.8812 34.1852 41.8812 34.79C41.8812 35.3786 41.4372 35.8816 40.8486 35.9406Z" fill="#200E32"/>
</g>
<defs>
<filter id="filter0_d_937_2479" x="0.9" y="0.9" width="68.2" height="68.2" filterUnits="userSpaceOnUse" color-interpolation-filters="sRGB">
<feFlood flood-opacity="0" result="BackgroundImageFix"/>
<feColorMatrix in="SourceAlpha" type="matrix" values="0 0 0 0 0 0 0 0 0 0 0 0 0 0 0 0 0 0 127 0" result="hardAlpha"/>
<feOffset dy="6"/>
<feGaussianBlur stdDeviation="5.05"/>
<feComposite in2="hardAlpha" operator="out"/>
<feColorMatrix type="matrix" values="0 0 0 0 0 0 0 0 0 0 0 0 0 0 0 0 0 0 0.04 0"/>
<feBlend mode="normal" in2="BackgroundImageFix" result="effect1_dropShadow_937_2479"/>
<feBlend mode="normal" in="SourceGraphic" in2="effect1_dropShadow_937_2479" result="shape"/>
</filter>
</defs>
</svg>
